<?xml version="1.0" encoding="UTF-8"?>
<svg id="Layer_1" data-name="Layer 1" xmlns="http://www.w3.org/2000/svg" xmlns:xlink="http://www.w3.org/1999/xlink" viewBox="0 0 215.58 476.16">
  <defs>
    <style>
      .cls-1 {
        fill: url(#linear-gradient-15);
      }

      .cls-2 {
        fill: url(#linear-gradient-13);
      }

      .cls-3 {
        fill: url(#linear-gradient-2);
      }

      .cls-4 {
        fill: url(#linear-gradient-10);
      }

      .cls-5 {
        fill: url(#linear-gradient-12);
      }

      .cls-6 {
        fill: url(#linear-gradient-4);
      }

      .cls-7 {
        mix-blend-mode: screen;
      }

      .cls-7, .cls-8 {
        opacity: .24;
      }

      .cls-9 {
        fill: url(#linear-gradient-3);
      }

      .cls-8 {
        mix-blend-mode: hard-light;
      }

      .cls-10 {
        fill: url(#linear-gradient-5);
      }

      .cls-11 {
        isolation: isolate;
      }

      .cls-12 {
        fill: url(#linear-gradient-8);
      }

      .cls-13 {
        fill: url(#linear-gradient-14);
      }

      .cls-14 {
        fill: url(#linear-gradient-17);
      }

      .cls-15 {
        fill: url(#linear-gradient-7);
      }

      .cls-16 {
        fill: url(#linear-gradient-9);
      }

      .cls-17 {
        fill: url(#linear-gradient-11);
      }

      .cls-18 {
        fill: url(#linear-gradient-6);
      }

      .cls-19 {
        opacity: .7;
      }

      .cls-20 {
        fill: url(#linear-gradient-16);
      }

      .cls-21 {
        fill: url(#linear-gradient);
      }
    </style>
    <linearGradient id="linear-gradient" x1="-98.01" y1="-476.54" x2="118.03" y2="-476.54" gradientTransform="translate(72.58 -237.57) rotate(-2.92) scale(1 -1)" gradientUnits="userSpaceOnUse">
      <stop offset="0" stop-color="#fb17f8"/>
      <stop offset="1" stop-color="#fdc70c"/>
    </linearGradient>
    <linearGradient id="linear-gradient-2" x1="77.55" y1="422.81" x2="143.12" y2="422.81" gradientTransform="translate(0 -82)" xlink:href="#linear-gradient"/>
    <linearGradient id="linear-gradient-3" x1="77.55" y1="422.81" x2="143.12" y2="422.81" gradientTransform="translate(0 -82)" xlink:href="#linear-gradient"/>
    <linearGradient id="linear-gradient-4" x1="77.55" y1="422.81" x2="143.12" y2="422.81" gradientTransform="translate(0 -82)" xlink:href="#linear-gradient"/>
    <linearGradient id="linear-gradient-5" x1="77.55" y1="422.81" x2="143.12" y2="422.81" gradientTransform="translate(0 -82)" xlink:href="#linear-gradient"/>
    <linearGradient id="linear-gradient-6" x1="77.55" y1="422.81" x2="143.12" y2="422.81" gradientTransform="translate(0 -82)" xlink:href="#linear-gradient"/>
    <linearGradient id="linear-gradient-7" x1="77.55" y1="422.81" x2="143.12" y2="422.81" gradientTransform="translate(0 -82)" xlink:href="#linear-gradient"/>
    <linearGradient id="linear-gradient-8" x1="77.55" y1="422.81" x2="143.12" y2="422.81" gradientTransform="translate(0 -82)" xlink:href="#linear-gradient"/>
    <linearGradient id="linear-gradient-9" x1="77.55" y1="422.81" x2="143.12" y2="422.81" gradientTransform="translate(0 -82)" xlink:href="#linear-gradient"/>
    <linearGradient id="linear-gradient-10" x1="58.27" y1="212.59" x2="130.1" y2="212.59" gradientTransform="translate(0 -82)" xlink:href="#linear-gradient"/>
    <linearGradient id="linear-gradient-11" x1="58.27" y1="212.59" x2="130.1" y2="212.59" gradientTransform="translate(0 -82)" xlink:href="#linear-gradient"/>
    <linearGradient id="linear-gradient-12" x1="58.27" y1="212.59" x2="130.1" y2="212.59" gradientTransform="translate(0 -82)" xlink:href="#linear-gradient"/>
    <linearGradient id="linear-gradient-13" x1="58.27" y1="212.59" x2="130.1" y2="212.59" gradientTransform="translate(0 -82)" xlink:href="#linear-gradient"/>
    <linearGradient id="linear-gradient-14" x1="58.27" y1="212.59" x2="130.1" y2="212.59" gradientTransform="translate(0 -82)" xlink:href="#linear-gradient"/>
    <linearGradient id="linear-gradient-15" x1="58.27" y1="212.59" x2="130.1" y2="212.59" gradientTransform="translate(0 -82)" xlink:href="#linear-gradient"/>
    <linearGradient id="linear-gradient-16" x1="58.27" y1="212.59" x2="130.1" y2="212.59" gradientTransform="translate(0 -82)" xlink:href="#linear-gradient"/>
    <linearGradient id="linear-gradient-17" x1="58.27" y1="130.59" x2="130.1" y2="130.59" gradientUnits="userSpaceOnUse">
      <stop offset="0" stop-color="#fdc70c"/>
      <stop offset="1" stop-color="#fb17f8"/>
    </linearGradient>
  </defs>
  <g class="cls-11">
    <g id="Layer_11" data-name="Layer 11">
      <path class="cls-21" d="M69.15,476.16c6.77-.33,11.67-11.93,14.98-18.22,12.12-24.89,26.14-48.02,43.37-69.9,42.02-52.98,107.57-97.15,82.57-167.65-1.79-4.79-3.93-8.38-6.28-9.78-7.29-4.21-14.54,12.74-20.26,18.91-3,3.67-6.5,7.31-10.74,9.38-14.77,6.96-21.79-11.03-21.79-23.37,1.18-65.76,25.07-129.79,2.55-194.94-8.27-24.42-21.55-27.81-37.49-6.32-15.97,20.74-32.43,45.58-46.86,70.39C43.8,127.94,21.91,178.77,7.56,224.03c-4.92,15.85-9.88,32.81-6.39,49.53,5.93,30.14,34.95,40.21,40.01,67.5,2.14,11.65.8,23.88.95,35.69.03,22.72,3.38,46,9.49,68.03,2.66,8.32,7.99,30.82,17.42,31.38h.1Z"/>
      <g class="cls-19">
        <g>
          <g>
            <path class="cls-3" d="M81.88,402.59c-4.94-2.19-4.35-12.74-4.28-17.96,1.21-24.6,10.1-47.52,23.21-68.51,4.29-6.94,9.05-13.79,14.2-20.07,4.6-5.51,9.79-11.45,15.55-15.06,5.69-3.59,10.62-2.63,12.08,4.11,1.41,6.97-.6,15.36-2.81,22.17-7.84,22.52-22.56,44.7-36.3,68.61-3.9,5.88-14.81,28.14-21.58,26.74l-.08-.02Z"/>
            <g class="cls-7">
              <path class="cls-9" d="M81.88,402.59c-4.94-2.19-4.35-12.74-4.28-17.96,1.21-24.6,10.1-47.52,23.21-68.51,4.29-6.94,9.05-13.79,14.2-20.07,4.6-5.51,9.79-11.45,15.55-15.06,5.69-3.59,10.62-2.63,12.08,4.11,1.41,6.97-.6,15.36-2.81,22.17-7.84,22.52-22.56,44.7-36.3,68.61-3.9,5.88-14.81,28.14-21.58,26.74l-.08-.02Z"/>
            </g>
          </g>
          <g class="cls-7">
            <path class="cls-6" d="M81.88,402.59c-4.94-2.19-4.35-12.74-4.28-17.96,1.21-24.6,10.1-47.52,23.21-68.51,4.29-6.94,9.05-13.79,14.2-20.07,4.6-5.51,9.79-11.45,15.55-15.06,5.69-3.59,10.62-2.63,12.08,4.11,1.41,6.97-.6,15.36-2.81,22.17-7.84,22.52-22.56,44.7-36.3,68.61-3.9,5.88-14.81,28.14-21.58,26.74l-.08-.02Z"/>
            <g class="cls-7">
              <path class="cls-10" d="M81.88,402.59c-4.94-2.19-4.35-12.74-4.28-17.96,1.21-24.6,10.1-47.52,23.21-68.51,4.29-6.94,9.05-13.79,14.2-20.07,4.6-5.51,9.79-11.45,15.55-15.06,5.69-3.59,10.62-2.63,12.08,4.11,1.41,6.97-.6,15.36-2.81,22.17-7.84,22.52-22.56,44.7-36.3,68.61-3.9,5.88-14.81,28.14-21.58,26.74l-.08-.02Z"/>
            </g>
          </g>
        </g>
        <g class="cls-8">
          <g>
            <path class="cls-18" d="M81.88,402.59c-4.94-2.19-4.35-12.74-4.28-17.96,1.21-24.6,10.1-47.52,23.21-68.51,4.29-6.94,9.05-13.79,14.2-20.07,4.6-5.51,9.79-11.45,15.55-15.06,5.69-3.59,10.62-2.63,12.08,4.11,1.41,6.97-.6,15.36-2.81,22.17-7.84,22.52-22.56,44.7-36.3,68.61-3.9,5.88-14.81,28.14-21.58,26.74l-.08-.02Z"/>
            <g class="cls-7">
              <path class="cls-15" d="M81.88,402.59c-4.94-2.19-4.35-12.74-4.28-17.96,1.21-24.6,10.1-47.52,23.21-68.51,4.29-6.94,9.05-13.79,14.2-20.07,4.6-5.51,9.79-11.45,15.55-15.06,5.69-3.59,10.62-2.63,12.08,4.11,1.41,6.97-.6,15.36-2.81,22.17-7.84,22.52-22.56,44.7-36.3,68.61-3.9,5.88-14.81,28.14-21.58,26.74l-.08-.02Z"/>
            </g>
          </g>
          <g class="cls-7">
            <path class="cls-12" d="M81.88,402.59c-4.94-2.19-4.35-12.74-4.28-17.96,1.21-24.6,10.1-47.52,23.21-68.51,4.29-6.94,9.05-13.79,14.2-20.07,4.6-5.51,9.79-11.45,15.55-15.06,5.69-3.59,10.62-2.63,12.08,4.11,1.41,6.97-.6,15.36-2.81,22.17-7.84,22.52-22.56,44.7-36.3,68.61-3.9,5.88-14.81,28.14-21.58,26.74l-.08-.02Z"/>
            <g class="cls-7">
              <path class="cls-16" d="M81.88,402.59c-4.94-2.19-4.35-12.74-4.28-17.96,1.21-24.6,10.1-47.52,23.21-68.51,4.29-6.94,9.05-13.79,14.2-20.07,4.6-5.51,9.79-11.45,15.55-15.06,5.69-3.59,10.62-2.63,12.08,4.11,1.41,6.97-.6,15.36-2.81,22.17-7.84,22.52-22.56,44.7-36.3,68.61-3.9,5.88-14.81,28.14-21.58,26.74l-.08-.02Z"/>
            </g>
          </g>
        </g>
      </g>
      <g class="cls-19">
        <g>
          <g>
            <path class="cls-4" d="M60.5,208.97c-3.86-1.84-1.66-12.15-1.07-16.34,8.52-43.15,26.62-79.17,48.32-117.29,11.02-19.97,26-39.83,21.54-.75-3.96,39.46-23.61,71.93-44.36,104.25-4.28,5.99-17.8,30.98-24.37,30.14l-.06-.02Z"/>
            <g class="cls-7">
              <path class="cls-17" d="M60.5,208.97c-3.86-1.84-1.66-12.15-1.07-16.34,8.52-43.15,26.62-79.17,48.32-117.29,11.02-19.97,26-39.83,21.54-.75-3.96,39.46-23.61,71.93-44.36,104.25-4.28,5.99-17.8,30.98-24.37,30.14l-.06-.02Z"/>
            </g>
          </g>
          <g class="cls-7">
            <path class="cls-5" d="M60.5,208.97c-3.86-1.84-1.66-12.15-1.07-16.34,8.52-43.15,26.62-79.17,48.32-117.29,11.02-19.97,26-39.83,21.54-.75-3.96,39.46-23.61,71.93-44.36,104.25-4.28,5.99-17.8,30.98-24.37,30.14l-.06-.02Z"/>
            <g class="cls-7">
              <path class="cls-2" d="M60.5,208.97c-3.86-1.84-1.66-12.15-1.07-16.34,8.52-43.15,26.62-79.17,48.32-117.29,11.02-19.97,26-39.83,21.54-.75-3.96,39.46-23.61,71.93-44.36,104.25-4.28,5.99-17.8,30.98-24.37,30.14l-.06-.02Z"/>
            </g>
          </g>
        </g>
        <g class="cls-8">
          <g>
            <path class="cls-13" d="M60.5,208.97c-3.86-1.84-1.66-12.15-1.07-16.34,8.52-43.15,26.62-79.17,48.32-117.29,11.02-19.97,26-39.83,21.54-.75-3.96,39.46-23.61,71.93-44.36,104.25-4.28,5.99-17.8,30.98-24.37,30.14l-.06-.02Z"/>
            <g class="cls-7">
              <path class="cls-1" d="M60.5,208.97c-3.86-1.84-1.66-12.15-1.07-16.34,8.52-43.15,26.62-79.17,48.32-117.29,11.02-19.97,26-39.83,21.54-.75-3.96,39.46-23.61,71.93-44.36,104.25-4.28,5.99-17.8,30.98-24.37,30.14l-.06-.02Z"/>
            </g>
          </g>
          <g class="cls-7">
            <path class="cls-20" d="M60.5,208.97c-3.86-1.84-1.66-12.15-1.07-16.34,8.52-43.15,26.62-79.17,48.32-117.29,11.02-19.97,26-39.83,21.54-.75-3.96,39.46-23.61,71.93-44.36,104.25-4.28,5.99-17.8,30.98-24.37,30.14l-.06-.02Z"/>
            <g class="cls-7">
              <path class="cls-14" d="M60.5,208.97c-3.86-1.84-1.66-12.15-1.07-16.34,8.52-43.15,26.62-79.17,48.32-117.29,11.02-19.97,26-39.83,21.54-.75-3.96,39.46-23.61,71.93-44.36,104.25-4.28,5.99-17.8,30.98-24.37,30.14l-.06-.02Z"/>
            </g>
          </g>
        </g>
      </g>
    </g>
  </g>
</svg>