<?xml version="1.0" encoding="UTF-8"?>
<svg id="Layer_1" xmlns="http://www.w3.org/2000/svg" version="1.1" xmlns:xlink="http://www.w3.org/1999/xlink" viewBox="0 0 215.19 476.19">
  <!-- Generator: Adobe Illustrator 29.8.2, SVG Export Plug-In . SVG Version: 2.1.1 Build 3)  -->
  <defs>
    <style>
      .st0 {
        opacity: .9;
      }

      .st1 {
        fill: url(#linear-gradient2);
      }

      .st2 {
        fill: url(#linear-gradient10);
      }

      .st3 {
        fill: url(#linear-gradient1);
      }

      .st4 {
        fill: url(#linear-gradient9);
      }

      .st5 {
        fill: url(#linear-gradient8);
      }

      .st6 {
        fill: url(#linear-gradient11);
      }

      .st7 {
        mix-blend-mode: screen;
      }

      .st7, .st8 {
        opacity: .24;
      }

      .st9 {
        fill: url(#linear-gradient16);
      }

      .st8 {
        mix-blend-mode: hard-light;
      }

      .st10 {
        isolation: isolate;
      }

      .st11 {
        fill: url(#linear-gradient12);
      }

      .st12 {
        fill: url(#linear-gradient7);
      }

      .st13 {
        fill: url(#linear-gradient4);
      }

      .st14 {
        fill: url(#linear-gradient14);
      }

      .st15 {
        fill: url(#linear-gradient5);
      }

      .st16 {
        fill: url(#linear-gradient3);
      }

      .st17 {
        fill: url(#linear-gradient15);
      }

      .st18 {
        fill: url(#linear-gradient17);
      }

      .st19 {
        fill: url(#linear-gradient18);
        opacity: .36;
      }

      .st20 {
        fill: url(#linear-gradient6);
      }

      .st21 {
        opacity: .7;
      }

      .st22 {
        fill: url(#linear-gradient13);
      }

      .st23 {
        fill: url(#linear-gradient);
      }
    </style>
    <linearGradient id="linear-gradient" x1="-79.04" y1="185.82" x2="136.64" y2="185.82" gradientTransform="translate(87.38 424.98) rotate(-2.92) scale(1 -1)" gradientUnits="userSpaceOnUse">
      <stop offset="0" stop-color="#fb17f8"/>
      <stop offset="1" stop-color="#fdc70c"/>
    </linearGradient>
    <linearGradient id="linear-gradient1" x1="78.52" y1="340.82" x2="144.13" y2="340.82" gradientTransform="matrix(1,0,0,1,0,0)" xlink:href="#linear-gradient"/>
    <linearGradient id="linear-gradient2" x1="78.52" y1="340.82" x2="144.13" y2="340.82" gradientTransform="matrix(1,0,0,1,0,0)" xlink:href="#linear-gradient"/>
    <linearGradient id="linear-gradient3" x1="78.52" y1="340.82" x2="144.13" y2="340.82" gradientTransform="matrix(1,0,0,1,0,0)" xlink:href="#linear-gradient"/>
    <linearGradient id="linear-gradient4" x1="78.52" y1="340.82" x2="144.13" y2="340.82" gradientTransform="matrix(1,0,0,1,0,0)" xlink:href="#linear-gradient"/>
    <linearGradient id="linear-gradient5" x1="78.52" y1="340.82" x2="144.13" y2="340.82" gradientTransform="matrix(1,0,0,1,0,0)" xlink:href="#linear-gradient"/>
    <linearGradient id="linear-gradient6" x1="78.52" y1="340.82" x2="144.13" y2="340.82" gradientTransform="matrix(1,0,0,1,0,0)" xlink:href="#linear-gradient"/>
    <linearGradient id="linear-gradient7" x1="78.52" y1="340.82" x2="144.13" y2="340.82" gradientTransform="matrix(1,0,0,1,0,0)" xlink:href="#linear-gradient"/>
    <linearGradient id="linear-gradient8" x1="78.52" y1="340.82" x2="144.13" y2="340.82" gradientTransform="matrix(1,0,0,1,0,0)" xlink:href="#linear-gradient"/>
    <linearGradient id="linear-gradient9" x1="58.21" y1="130.98" x2="130.01" y2="130.98" gradientTransform="matrix(1,0,0,1,0,0)" xlink:href="#linear-gradient"/>
    <linearGradient id="linear-gradient10" x1="58.21" y1="130.98" x2="130.01" y2="130.98" gradientTransform="matrix(1,0,0,1,0,0)" xlink:href="#linear-gradient"/>
    <linearGradient id="linear-gradient11" x1="58.21" y1="130.98" x2="130.01" y2="130.98" gradientTransform="matrix(1,0,0,1,0,0)" xlink:href="#linear-gradient"/>
    <linearGradient id="linear-gradient12" x1="58.21" y1="130.98" x2="130.01" y2="130.98" gradientTransform="matrix(1,0,0,1,0,0)" xlink:href="#linear-gradient"/>
    <linearGradient id="linear-gradient13" x1="58.21" y1="130.98" x2="130.01" y2="130.98" gradientTransform="matrix(1,0,0,1,0,0)" xlink:href="#linear-gradient"/>
    <linearGradient id="linear-gradient14" x1="58.21" y1="130.98" x2="130.01" y2="130.98" gradientTransform="matrix(1,0,0,1,0,0)" xlink:href="#linear-gradient"/>
    <linearGradient id="linear-gradient15" x1="58.21" y1="130.98" x2="130.01" y2="130.98" gradientTransform="matrix(1,0,0,1,0,0)" xlink:href="#linear-gradient"/>
    <linearGradient id="linear-gradient16" x1="58.21" y1="130.98" x2="130.01" y2="130.98" gradientTransform="matrix(1,0,0,1,0,0)" xlink:href="#linear-gradient"/>
    <linearGradient id="linear-gradient17" x1="291.54" y1="226.47" x2="362.96" y2="226.47" gradientTransform="matrix(1,0,0,1,0,0)" xlink:href="#linear-gradient"/>
    <linearGradient id="linear-gradient18" x1="301.15" y1="221.94" x2="355.28" y2="221.94" gradientTransform="matrix(1,0,0,1,0,0)" xlink:href="#linear-gradient"/>
  </defs>
  <g class="st10">
    <g id="Layer_11" data-name="Layer_1">
      <path class="st23" d="M70.21,476.19c2.93-.15,5.71-6.11,9.18-14.05,11.7-26.95,30.01-57.13,49.43-81.05,49.03-59.75,106.9-89.63,79.15-169.07-2.39-5.88-4.48-12.62-8.72-8.71-5.97,9.61-27.5,61.56-45.98,33.02-7.19-14.98-1.46-34.26-.03-53.66,5.1-57.86,20.07-98.87-.19-159.66-3.03-8.33-6.94-21.55-15.69-23-4.27-.29-8.63,4.13-11.56,7.71-19.98,24.59-41.62,54.98-62.11,91.21C38.55,142.64,15.9,198.19,4.28,238.96c-3.05,10.72-5.7,20.65-3.42,31.97,2.82,18.64,20.53,35.22,34.91,47.28,13.95,14.13,6.33,34.64,7.12,52.4-.39,26.62,5.3,59.56,14.91,84.66,3.3,7.29,5.19,17.67,11.97,20.93h.44Z"/>
      <g class="st21">
        <g>
          <g>
            <path class="st3" d="M81.45,402.71c-1.21-.21-1.86-2.4-2.29-5.68-2.19-18.65,1.38-39.92,9.14-56.55,11.07-22.95,31.39-52.4,51.65-61.49.21-.09.46-.09.65.02,6.35,3.62,2.46,18.21,1.14,24.55,0,.03-.02.07-.03.1-9.15,25.44-21.43,40.78-45.8,80.47,0,.01-.02.02-.02.04-4.62,6.35-7.68,14.16-13.95,18.53h-.49Z"/>
            <g class="st7">
              <path class="st1" d="M81.45,402.71c-1.21-.21-1.86-2.4-2.29-5.68-2.19-18.65,1.38-39.92,9.14-56.55,11.07-22.95,31.39-52.4,51.65-61.49.21-.09.46-.09.65.02,6.35,3.62,2.46,18.21,1.14,24.55,0,.03-.02.07-.03.1-9.15,25.44-21.43,40.78-45.8,80.47,0,.01-.02.02-.02.04-4.62,6.35-7.68,14.16-13.95,18.53h-.49Z"/>
            </g>
          </g>
          <g class="st7">
            <path class="st16" d="M81.45,402.71c-1.21-.21-1.86-2.4-2.29-5.68-2.19-18.65,1.38-39.92,9.14-56.55,11.07-22.95,31.39-52.4,51.65-61.49.21-.09.46-.09.65.02,6.35,3.62,2.46,18.21,1.14,24.55,0,.03-.02.07-.03.1-9.15,25.44-21.43,40.78-45.8,80.47,0,.01-.02.02-.02.04-4.62,6.35-7.68,14.16-13.95,18.53h-.49Z"/>
            <g class="st7">
              <path class="st13" d="M81.45,402.71c-1.21-.21-1.86-2.4-2.29-5.68-2.19-18.65,1.38-39.92,9.14-56.55,11.07-22.95,31.39-52.4,51.65-61.49.21-.09.46-.09.65.02,6.35,3.62,2.46,18.21,1.14,24.55,0,.03-.02.07-.03.1-9.15,25.44-21.43,40.78-45.8,80.47,0,.01-.02.02-.02.04-4.62,6.35-7.68,14.16-13.95,18.53h-.49Z"/>
            </g>
          </g>
        </g>
        <g class="st8">
          <g>
            <path class="st15" d="M81.45,402.71c-1.21-.21-1.86-2.4-2.29-5.68-2.19-18.65,1.38-39.92,9.14-56.55,11.07-22.95,31.39-52.4,51.65-61.49.21-.09.46-.09.65.02,6.35,3.62,2.46,18.21,1.14,24.55,0,.03-.02.07-.03.1-9.15,25.44-21.43,40.78-45.8,80.47,0,.01-.02.02-.02.04-4.62,6.35-7.68,14.16-13.95,18.53h-.49Z"/>
            <g class="st7">
              <path class="st20" d="M81.45,402.71c-1.21-.21-1.86-2.4-2.29-5.68-2.19-18.65,1.38-39.92,9.14-56.55,11.07-22.95,31.39-52.4,51.65-61.49.21-.09.46-.09.65.02,6.35,3.62,2.46,18.21,1.14,24.55,0,.03-.02.07-.03.1-9.15,25.44-21.43,40.78-45.8,80.47,0,.01-.02.02-.02.04-4.62,6.35-7.68,14.16-13.95,18.53h-.49Z"/>
            </g>
          </g>
          <g class="st7">
            <path class="st12" d="M81.45,402.71c-1.21-.21-1.86-2.4-2.29-5.68-2.19-18.65,1.38-39.92,9.14-56.55,11.07-22.95,31.39-52.4,51.65-61.49.21-.09.46-.09.65.02,6.35,3.62,2.46,18.21,1.14,24.55,0,.03-.02.07-.03.1-9.15,25.44-21.43,40.78-45.8,80.47,0,.01-.02.02-.02.04-4.62,6.35-7.68,14.16-13.95,18.53h-.49Z"/>
            <g class="st7">
              <path class="st5" d="M81.45,402.71c-1.21-.21-1.86-2.4-2.29-5.68-2.19-18.65,1.38-39.92,9.14-56.55,11.07-22.95,31.39-52.4,51.65-61.49.21-.09.46-.09.65.02,6.35,3.62,2.46,18.21,1.14,24.55,0,.03-.02.07-.03.1-9.15,25.44-21.43,40.78-45.8,80.47,0,.01-.02.02-.02.04-4.62,6.35-7.68,14.16-13.95,18.53h-.49Z"/>
            </g>
          </g>
        </g>
      </g>
      <g class="st21">
        <g>
          <g>
            <path class="st4" d="M59.62,209.45c-1.31.05-1.65-2.23-1.26-6.17.4-3.95,1.35-9.25,2.36-14.39,10.7-49.7,29.62-80.71,56.35-125.94,22.52-35.24,9.47,29.08,6.32,40.39-7.52,26.96-25.98,52.89-40.52,75.21-7.07,9.66-13.66,23.52-22.84,30.83l-.42.07h.01Z"/>
            <g class="st7">
              <path class="st2" d="M59.62,209.45c-1.31.05-1.65-2.23-1.26-6.17.4-3.95,1.35-9.25,2.36-14.39,10.7-49.7,29.62-80.71,56.35-125.94,22.52-35.24,9.47,29.08,6.32,40.39-7.52,26.96-25.98,52.89-40.52,75.21-7.07,9.66-13.66,23.52-22.84,30.83l-.42.07h.01Z"/>
            </g>
          </g>
          <g class="st7">
            <path class="st6" d="M59.62,209.45c-1.31.05-1.65-2.23-1.26-6.17.4-3.95,1.35-9.25,2.36-14.39,10.7-49.7,29.62-80.71,56.35-125.94,22.52-35.24,9.47,29.08,6.32,40.39-7.52,26.96-25.98,52.89-40.52,75.21-7.07,9.66-13.66,23.52-22.84,30.83l-.42.07h.01Z"/>
            <g class="st7">
              <path class="st11" d="M59.62,209.45c-1.31.05-1.65-2.23-1.26-6.17.4-3.95,1.35-9.25,2.36-14.39,10.7-49.7,29.62-80.71,56.35-125.94,22.52-35.24,9.47,29.08,6.32,40.39-7.52,26.96-25.98,52.89-40.52,75.21-7.07,9.66-13.66,23.52-22.84,30.83l-.42.07h.01Z"/>
            </g>
          </g>
        </g>
        <g class="st8">
          <g>
            <path class="st22" d="M59.62,209.45c-1.31.05-1.65-2.23-1.26-6.17.4-3.95,1.35-9.25,2.36-14.39,10.7-49.7,29.62-80.71,56.35-125.94,22.52-35.24,9.47,29.08,6.32,40.39-7.52,26.96-25.98,52.89-40.52,75.21-7.07,9.66-13.66,23.52-22.84,30.83l-.42.07h.01Z"/>
            <g class="st7">
              <path class="st14" d="M59.62,209.45c-1.31.05-1.65-2.23-1.26-6.17.4-3.95,1.35-9.25,2.36-14.39,10.7-49.7,29.62-80.71,56.35-125.94,22.52-35.24,9.47,29.08,6.32,40.39-7.52,26.96-25.98,52.89-40.52,75.21-7.07,9.66-13.66,23.52-22.84,30.83l-.42.07h.01Z"/>
            </g>
          </g>
          <g class="st7">
            <path class="st17" d="M59.62,209.45c-1.31.05-1.65-2.23-1.26-6.17.4-3.95,1.35-9.25,2.36-14.39,10.7-49.7,29.62-80.71,56.35-125.94,22.52-35.24,9.47,29.08,6.32,40.39-7.52,26.96-25.98,52.89-40.52,75.21-7.07,9.66-13.66,23.52-22.84,30.83l-.42.07h.01Z"/>
            <g class="st7">
              <path class="st9" d="M59.62,209.45c-1.31.05-1.65-2.23-1.26-6.17.4-3.95,1.35-9.25,2.36-14.39,10.7-49.7,29.62-80.71,56.35-125.94,22.52-35.24,9.47,29.08,6.32,40.39-7.52,26.96-25.98,52.89-40.52,75.21-7.07,9.66-13.66,23.52-22.84,30.83l-.42.07h.01Z"/>
            </g>
          </g>
        </g>
      </g>
    </g>
  </g>
  <g class="st0">
    <path class="st18" d="M327.88,203.53c-1.32.29-2.62.55-3.92.53-5.54.2-7.12-7.61-11.68-5.07-3.12,1.7-5.67,4.9-7.29,8.09-3.42,6.51.13,13.61-2.23,19.68-3.02,7.33-9.27,14.62-11.07,22.35-2.67,14.14,30.67-4.15,36.98-5.02,4.35-1.03,8.65.12,13.02.04,6.75-.1,14.55-5.46,19.17-10.8,1.84-2.12,3.76-5.72-.34-5.88-33.41.81,29.46-38.71-32.05-24.06l-.59.14Z"/>
    <path class="st19" d="M355.28,201.89c-1.35-1.13-4.01-1.02-6.81-.74-4.57.52-9.33.86-13.88,1.58-8.68,1.12-15.13,6.15-19.01,13.47-4.42,7.44-9.52,15.85-13.78,23.6-.75,1.47-.79,2.3-.44,2.73.73.9,3.2,0,4.28-.39,6.24-2.31,26.15-13.01,32.8-16.61,1.78-1,4.18-2.49,6.8-4.57,2.23-1.77,4.49-3.57,6.25-5.99,1.25-1.71,3.86-5.92,3.78-13.07Z"/>
  </g>
</svg>