<?xml version="1.0" encoding="UTF-8"?>
<svg id="Layer_1" data-name="Layer 1" xmlns="http://www.w3.org/2000/svg" xmlns:xlink="http://www.w3.org/1999/xlink" viewBox="0 0 215.18 476.2">
  <defs>
    <style>
      .cls-1 {
        fill: url(#linear-gradient-15);
      }

      .cls-2 {
        fill: url(#linear-gradient-13);
      }

      .cls-3 {
        fill: url(#linear-gradient-2);
      }

      .cls-4 {
        fill: url(#linear-gradient-10);
      }

      .cls-5 {
        fill: url(#linear-gradient-12);
      }

      .cls-6 {
        fill: url(#linear-gradient-4);
      }

      .cls-7 {
        mix-blend-mode: screen;
      }

      .cls-7, .cls-8 {
        opacity: .24;
      }

      .cls-9 {
        fill: url(#linear-gradient-3);
      }

      .cls-8 {
        mix-blend-mode: hard-light;
      }

      .cls-10 {
        fill: url(#linear-gradient-5);
      }

      .cls-11 {
        isolation: isolate;
      }

      .cls-12 {
        fill: url(#linear-gradient-8);
      }

      .cls-13 {
        fill: url(#linear-gradient-14);
      }

      .cls-14 {
        fill: url(#linear-gradient-17);
      }

      .cls-15 {
        fill: url(#linear-gradient-7);
      }

      .cls-16 {
        fill: url(#linear-gradient-9);
      }

      .cls-17 {
        fill: url(#linear-gradient-11);
      }

      .cls-18 {
        fill: url(#linear-gradient-6);
      }

      .cls-19 {
        opacity: .7;
      }

      .cls-20 {
        fill: url(#linear-gradient-16);
      }

      .cls-21 {
        fill: url(#linear-gradient);
      }
    </style>
    <linearGradient id="linear-gradient" x1="-95.47" y1="937.15" x2="120.2" y2="937.15" gradientTransform="translate(46.59 -697.36) rotate(-2.92)" gradientUnits="userSpaceOnUse">
      <stop offset="0" stop-color="#fb17f8"/>
      <stop offset="1" stop-color="#fdc70c"/>
    </linearGradient>
    <linearGradient id="linear-gradient-2" x1="78.52" y1="137.19" x2="144.13" y2="137.19" gradientTransform="translate(0 478.01) scale(1 -1)" gradientUnits="userSpaceOnUse">
      <stop offset="0" stop-color="#fb17f8"/>
      <stop offset="1" stop-color="#fdc70c"/>
    </linearGradient>
    <linearGradient id="linear-gradient-3" x1="78.52" y1="137.19" x2="144.13" y2="137.19" gradientTransform="translate(0 478.01) scale(1 -1)" gradientUnits="userSpaceOnUse">
      <stop offset="0" stop-color="#fb17f8"/>
      <stop offset="1" stop-color="#fdc70c"/>
    </linearGradient>
    <linearGradient id="linear-gradient-4" x1="78.52" y1="137.19" x2="144.13" y2="137.19" gradientTransform="translate(0 478.01) scale(1 -1)" gradientUnits="userSpaceOnUse">
      <stop offset="0" stop-color="#fb17f8"/>
      <stop offset="1" stop-color="#fdc70c"/>
    </linearGradient>
    <linearGradient id="linear-gradient-5" x1="78.52" y1="137.19" x2="144.13" y2="137.19" gradientTransform="translate(0 478.01) scale(1 -1)" gradientUnits="userSpaceOnUse">
      <stop offset="0" stop-color="#fb17f8"/>
      <stop offset="1" stop-color="#fdc70c"/>
    </linearGradient>
    <linearGradient id="linear-gradient-6" x1="78.52" y1="137.19" x2="144.13" y2="137.19" gradientTransform="translate(0 478.01) scale(1 -1)" gradientUnits="userSpaceOnUse">
      <stop offset="0" stop-color="#fb17f8"/>
      <stop offset="1" stop-color="#fdc70c"/>
    </linearGradient>
    <linearGradient id="linear-gradient-7" x1="78.52" y1="137.19" x2="144.13" y2="137.19" gradientTransform="translate(0 478.01) scale(1 -1)" gradientUnits="userSpaceOnUse">
      <stop offset="0" stop-color="#fb17f8"/>
      <stop offset="1" stop-color="#fdc70c"/>
    </linearGradient>
    <linearGradient id="linear-gradient-8" x1="78.52" y1="137.19" x2="144.13" y2="137.19" gradientTransform="translate(0 478.01) scale(1 -1)" gradientUnits="userSpaceOnUse">
      <stop offset="0" stop-color="#fb17f8"/>
      <stop offset="1" stop-color="#fdc70c"/>
    </linearGradient>
    <linearGradient id="linear-gradient-9" x1="78.52" y1="137.19" x2="144.13" y2="137.19" gradientTransform="translate(0 478.01) scale(1 -1)" gradientUnits="userSpaceOnUse">
      <stop offset="0" stop-color="#fb17f8"/>
      <stop offset="1" stop-color="#fdc70c"/>
    </linearGradient>
    <linearGradient id="linear-gradient-10" x1="58.21" y1="347.02" x2="130.01" y2="347.02" gradientTransform="translate(0 478.01) scale(1 -1)" gradientUnits="userSpaceOnUse">
      <stop offset="0" stop-color="#fb17f8"/>
      <stop offset="1" stop-color="#fdc70c"/>
    </linearGradient>
    <linearGradient id="linear-gradient-11" x1="58.21" y1="347.02" x2="130.01" y2="347.02" gradientTransform="translate(0 478.01) scale(1 -1)" gradientUnits="userSpaceOnUse">
      <stop offset="0" stop-color="#fb17f8"/>
      <stop offset="1" stop-color="#fdc70c"/>
    </linearGradient>
    <linearGradient id="linear-gradient-12" x1="58.21" y1="347.02" x2="130.01" y2="347.02" gradientTransform="translate(0 478.01) scale(1 -1)" gradientUnits="userSpaceOnUse">
      <stop offset="0" stop-color="#fb17f8"/>
      <stop offset="1" stop-color="#fdc70c"/>
    </linearGradient>
    <linearGradient id="linear-gradient-13" x1="58.21" y1="347.02" x2="130.01" y2="347.02" gradientTransform="translate(0 478.01) scale(1 -1)" gradientUnits="userSpaceOnUse">
      <stop offset="0" stop-color="#fb17f8"/>
      <stop offset="1" stop-color="#fdc70c"/>
    </linearGradient>
    <linearGradient id="linear-gradient-14" x1="58.21" y1="347.02" x2="130.01" y2="347.02" gradientTransform="translate(0 478.01) scale(1 -1)" gradientUnits="userSpaceOnUse">
      <stop offset="0" stop-color="#fb17f8"/>
      <stop offset="1" stop-color="#fdc70c"/>
    </linearGradient>
    <linearGradient id="linear-gradient-15" x1="58.21" y1="347.02" x2="130.01" y2="347.02" gradientTransform="translate(0 478.01) scale(1 -1)" gradientUnits="userSpaceOnUse">
      <stop offset="0" stop-color="#fb17f8"/>
      <stop offset="1" stop-color="#fdc70c"/>
    </linearGradient>
    <linearGradient id="linear-gradient-16" x1="58.21" y1="347.02" x2="130.01" y2="347.02" gradientTransform="translate(0 478.01) scale(1 -1)" gradientUnits="userSpaceOnUse">
      <stop offset="0" stop-color="#fb17f8"/>
      <stop offset="1" stop-color="#fdc70c"/>
    </linearGradient>
    <linearGradient id="linear-gradient-17" x1="58.21" y1="347.02" x2="130.01" y2="347.02" gradientTransform="translate(0 478.01) scale(1 -1)" gradientUnits="userSpaceOnUse">
      <stop offset="0" stop-color="#fb17f8"/>
      <stop offset="1" stop-color="#fdc70c"/>
    </linearGradient>
  </defs>
  <g class="cls-11">
    <g id="Layer_11" data-name="Layer 11">
      <path class="cls-21" d="M70.21,476.19c2.93-.15,5.71-6.11,9.18-14.05,11.7-26.95,30.01-57.13,49.43-81.05,49.03-59.75,106.9-89.63,79.15-169.07-2.39-5.88-4.48-12.62-8.72-8.71-5.97,9.61-27.5,61.56-45.98,33.02-7.19-14.98-1.46-34.26-.03-53.66,5.1-57.86,20.07-98.87-.19-159.66-3.03-8.33-6.94-21.55-15.69-23-4.27-.29-8.63,4.13-11.56,7.71-19.98,24.59-41.62,54.98-62.11,91.21C38.55,142.64,15.9,198.19,4.28,238.96c-3.05,10.72-5.7,20.65-3.42,31.97,2.82,18.64,20.53,35.22,34.91,47.28,13.95,14.13,6.33,34.64,7.12,52.4-.39,26.62,5.3,59.56,14.91,84.66,3.3,7.29,5.19,17.67,11.97,20.93h.44Z"/>
      <g class="cls-19">
        <g>
          <g>
            <path class="cls-3" d="M81.45,402.71c-1.21-.21-1.86-2.4-2.29-5.68-2.19-18.65,1.38-39.92,9.14-56.55,11.07-22.95,31.39-52.4,51.65-61.49.21-.09.46-.09.65.02,6.35,3.62,2.46,18.21,1.14,24.55,0,.03-.02.07-.03.1-9.15,25.44-21.43,40.78-45.8,80.47,0,.01-.02.02-.02.04-4.62,6.35-7.68,14.16-13.95,18.53h-.49Z"/>
            <g class="cls-7">
              <path class="cls-9" d="M81.45,402.71c-1.21-.21-1.86-2.4-2.29-5.68-2.19-18.65,1.38-39.92,9.14-56.55,11.07-22.95,31.39-52.4,51.65-61.49.21-.09.46-.09.65.02,6.35,3.62,2.46,18.21,1.14,24.55,0,.03-.02.07-.03.1-9.15,25.44-21.43,40.78-45.8,80.47,0,.01-.02.02-.02.04-4.62,6.35-7.68,14.16-13.95,18.53h-.49Z"/>
            </g>
          </g>
          <g class="cls-7">
            <path class="cls-6" d="M81.45,402.71c-1.21-.21-1.86-2.4-2.29-5.68-2.19-18.65,1.38-39.92,9.14-56.55,11.07-22.95,31.39-52.4,51.65-61.49.21-.09.46-.09.65.02,6.35,3.62,2.46,18.21,1.14,24.55,0,.03-.02.07-.03.1-9.15,25.44-21.43,40.78-45.8,80.47,0,.01-.02.02-.02.04-4.62,6.35-7.68,14.16-13.95,18.53h-.49Z"/>
            <g class="cls-7">
              <path class="cls-10" d="M81.45,402.71c-1.21-.21-1.86-2.4-2.29-5.68-2.19-18.65,1.38-39.92,9.14-56.55,11.07-22.95,31.39-52.4,51.65-61.49.21-.09.46-.09.65.02,6.35,3.62,2.46,18.21,1.14,24.55,0,.03-.02.07-.03.1-9.15,25.44-21.43,40.78-45.8,80.47,0,.01-.02.02-.02.04-4.62,6.35-7.68,14.16-13.95,18.53h-.49Z"/>
            </g>
          </g>
        </g>
        <g class="cls-8">
          <g>
            <path class="cls-18" d="M81.45,402.71c-1.21-.21-1.86-2.4-2.29-5.68-2.19-18.65,1.38-39.92,9.14-56.55,11.07-22.95,31.39-52.4,51.65-61.49.21-.09.46-.09.65.02,6.35,3.62,2.46,18.21,1.14,24.55,0,.03-.02.07-.03.1-9.15,25.44-21.43,40.78-45.8,80.47,0,.01-.02.02-.02.04-4.62,6.35-7.68,14.16-13.95,18.53h-.49Z"/>
            <g class="cls-7">
              <path class="cls-15" d="M81.45,402.71c-1.21-.21-1.86-2.4-2.29-5.68-2.19-18.65,1.38-39.92,9.14-56.55,11.07-22.95,31.39-52.4,51.65-61.49.21-.09.46-.09.65.02,6.35,3.62,2.46,18.21,1.14,24.55,0,.03-.02.07-.03.1-9.15,25.44-21.43,40.78-45.8,80.47,0,.01-.02.02-.02.04-4.62,6.35-7.68,14.16-13.95,18.53h-.49Z"/>
            </g>
          </g>
          <g class="cls-7">
            <path class="cls-12" d="M81.45,402.71c-1.21-.21-1.86-2.4-2.29-5.68-2.19-18.65,1.38-39.92,9.14-56.55,11.07-22.95,31.39-52.4,51.65-61.49.21-.09.46-.09.65.02,6.35,3.62,2.46,18.21,1.14,24.55,0,.03-.02.07-.03.1-9.15,25.44-21.43,40.78-45.8,80.47,0,.01-.02.02-.02.04-4.62,6.35-7.68,14.16-13.95,18.53h-.49Z"/>
            <g class="cls-7">
              <path class="cls-16" d="M81.45,402.71c-1.21-.21-1.86-2.4-2.29-5.68-2.19-18.65,1.38-39.92,9.14-56.55,11.07-22.95,31.39-52.4,51.65-61.49.21-.09.46-.09.65.02,6.35,3.62,2.46,18.21,1.14,24.55,0,.03-.02.07-.03.1-9.15,25.44-21.43,40.78-45.8,80.47,0,.01-.02.02-.02.04-4.62,6.35-7.68,14.16-13.95,18.53h-.49Z"/>
            </g>
          </g>
        </g>
      </g>
      <g class="cls-19">
        <g>
          <g>
            <path class="cls-4" d="M59.62,209.45c-1.31.05-1.65-2.23-1.26-6.17.4-3.95,1.35-9.25,2.36-14.39,10.7-49.7,29.62-80.71,56.35-125.94,22.52-35.24,9.47,29.08,6.32,40.39-7.52,26.96-25.98,52.89-40.52,75.21-7.07,9.66-13.66,23.52-22.84,30.83l-.42.07h.01Z"/>
            <g class="cls-7">
              <path class="cls-17" d="M59.62,209.45c-1.31.05-1.65-2.23-1.26-6.17.4-3.95,1.35-9.25,2.36-14.39,10.7-49.7,29.62-80.71,56.35-125.94,22.52-35.24,9.47,29.08,6.32,40.39-7.52,26.96-25.98,52.89-40.52,75.21-7.07,9.66-13.66,23.52-22.84,30.83l-.42.07h.01Z"/>
            </g>
          </g>
          <g class="cls-7">
            <path class="cls-5" d="M59.62,209.45c-1.31.05-1.65-2.23-1.26-6.17.4-3.95,1.35-9.25,2.36-14.39,10.7-49.7,29.62-80.71,56.35-125.94,22.52-35.24,9.47,29.08,6.32,40.39-7.52,26.96-25.98,52.89-40.52,75.21-7.07,9.66-13.66,23.52-22.84,30.83l-.42.07h.01Z"/>
            <g class="cls-7">
              <path class="cls-2" d="M59.62,209.45c-1.31.05-1.65-2.23-1.26-6.17.4-3.95,1.35-9.25,2.36-14.39,10.7-49.7,29.62-80.71,56.35-125.94,22.52-35.24,9.47,29.08,6.32,40.39-7.52,26.96-25.98,52.89-40.52,75.21-7.07,9.66-13.66,23.52-22.84,30.83l-.42.07h.01Z"/>
            </g>
          </g>
        </g>
        <g class="cls-8">
          <g>
            <path class="cls-13" d="M59.62,209.45c-1.31.05-1.65-2.23-1.26-6.17.4-3.95,1.35-9.25,2.36-14.39,10.7-49.7,29.62-80.71,56.35-125.94,22.52-35.24,9.47,29.08,6.32,40.39-7.52,26.96-25.98,52.89-40.52,75.21-7.07,9.66-13.66,23.52-22.84,30.83l-.42.07h.01Z"/>
            <g class="cls-7">
              <path class="cls-1" d="M59.62,209.45c-1.31.05-1.65-2.23-1.26-6.17.4-3.95,1.35-9.25,2.36-14.39,10.7-49.7,29.62-80.71,56.35-125.94,22.52-35.24,9.47,29.08,6.32,40.39-7.52,26.96-25.98,52.89-40.52,75.21-7.07,9.66-13.66,23.52-22.84,30.83l-.42.07h.01Z"/>
            </g>
          </g>
          <g class="cls-7">
            <path class="cls-20" d="M59.62,209.45c-1.31.05-1.65-2.23-1.26-6.17.4-3.95,1.35-9.25,2.36-14.39,10.7-49.7,29.62-80.71,56.35-125.94,22.52-35.24,9.47,29.08,6.32,40.39-7.52,26.96-25.98,52.89-40.52,75.21-7.07,9.66-13.66,23.52-22.84,30.83l-.42.07h.01Z"/>
            <g class="cls-7">
              <path class="cls-14" d="M59.62,209.45c-1.31.05-1.65-2.23-1.26-6.17.4-3.95,1.35-9.25,2.36-14.39,10.7-49.7,29.62-80.71,56.35-125.94,22.52-35.24,9.47,29.08,6.32,40.39-7.52,26.96-25.98,52.89-40.52,75.21-7.07,9.66-13.66,23.52-22.84,30.83l-.42.07h.01Z"/>
            </g>
          </g>
        </g>
      </g>
    </g>
  </g>
</svg>