<?xml version="1.0" encoding="UTF-8"?>
<svg id="Layer_1" xmlns="http://www.w3.org/2000/svg" version="1.1" xmlns:xlink="http://www.w3.org/1999/xlink" viewBox="0 0 215.19 476.19">
  <!-- Generator: Adobe Illustrator 29.8.2, SVG Export Plug-In . SVG Version: 2.1.1 Build 3)  -->
  <defs>
    <style>
      .st0 {
        fill: url(#linear-gradient2);
      }

      .st1 {
        fill: url(#linear-gradient10);
      }

      .st2 {
        fill: url(#linear-gradient1);
      }

      .st3 {
        fill: url(#linear-gradient9);
      }

      .st4 {
        fill: url(#linear-gradient8);
      }

      .st5 {
        fill: url(#linear-gradient11);
      }

      .st6 {
        mix-blend-mode: screen;
      }

      .st6, .st7 {
        opacity: .24;
      }

      .st8 {
        fill: url(#linear-gradient16);
      }

      .st7 {
        mix-blend-mode: hard-light;
      }

      .st9 {
        isolation: isolate;
      }

      .st10 {
        fill: url(#linear-gradient12);
      }

      .st11 {
        fill: url(#linear-gradient7);
      }

      .st12 {
        fill: url(#linear-gradient4);
      }

      .st13 {
        fill: url(#linear-gradient14);
      }

      .st14 {
        fill: url(#linear-gradient5);
      }

      .st15 {
        fill: url(#linear-gradient3);
      }

      .st16 {
        fill: url(#linear-gradient15);
      }

      .st17 {
        fill: url(#linear-gradient6);
      }

      .st18 {
        opacity: .7;
      }

      .st19 {
        fill: url(#linear-gradient13);
      }

      .st20 {
        fill: url(#linear-gradient);
      }
    </style>
    <linearGradient id="linear-gradient" x1="-95.47" y1="937.14" x2="120.2" y2="937.14" gradientTransform="translate(46.59 -697.36) rotate(-2.92)" gradientUnits="userSpaceOnUse">
      <stop offset="0" stop-color="#fb17f8"/>
      <stop offset="1" stop-color="#fdc70c"/>
    </linearGradient>
    <linearGradient id="linear-gradient1" x1="78.52" y1="137.18" x2="144.13" y2="137.18" gradientTransform="translate(0 478) scale(1 -1)" gradientUnits="userSpaceOnUse">
      <stop offset="0" stop-color="#fb17f8"/>
      <stop offset="1" stop-color="#fdc70c"/>
    </linearGradient>
    <linearGradient id="linear-gradient2" x1="78.52" y1="137.18" x2="144.13" y2="137.18" gradientTransform="translate(0 478) scale(1 -1)" gradientUnits="userSpaceOnUse">
      <stop offset="0" stop-color="#fb17f8"/>
      <stop offset="1" stop-color="#fdc70c"/>
    </linearGradient>
    <linearGradient id="linear-gradient3" x1="78.52" y1="137.18" x2="144.13" y2="137.18" gradientTransform="translate(0 478) scale(1 -1)" gradientUnits="userSpaceOnUse">
      <stop offset="0" stop-color="#fb17f8"/>
      <stop offset="1" stop-color="#fdc70c"/>
    </linearGradient>
    <linearGradient id="linear-gradient4" x1="78.52" y1="137.18" x2="144.13" y2="137.18" gradientTransform="translate(0 478) scale(1 -1)" gradientUnits="userSpaceOnUse">
      <stop offset="0" stop-color="#fb17f8"/>
      <stop offset="1" stop-color="#fdc70c"/>
    </linearGradient>
    <linearGradient id="linear-gradient5" x1="78.52" y1="137.18" x2="144.13" y2="137.18" gradientTransform="translate(0 478) scale(1 -1)" gradientUnits="userSpaceOnUse">
      <stop offset="0" stop-color="#fb17f8"/>
      <stop offset="1" stop-color="#fdc70c"/>
    </linearGradient>
    <linearGradient id="linear-gradient6" x1="78.52" y1="137.18" x2="144.13" y2="137.18" gradientTransform="translate(0 478) scale(1 -1)" gradientUnits="userSpaceOnUse">
      <stop offset="0" stop-color="#fb17f8"/>
      <stop offset="1" stop-color="#fdc70c"/>
    </linearGradient>
    <linearGradient id="linear-gradient7" x1="78.52" y1="137.18" x2="144.13" y2="137.18" gradientTransform="translate(0 478) scale(1 -1)" gradientUnits="userSpaceOnUse">
      <stop offset="0" stop-color="#fb17f8"/>
      <stop offset="1" stop-color="#fdc70c"/>
    </linearGradient>
    <linearGradient id="linear-gradient8" x1="78.52" y1="137.18" x2="144.13" y2="137.18" gradientTransform="translate(0 478) scale(1 -1)" gradientUnits="userSpaceOnUse">
      <stop offset="0" stop-color="#fb17f8"/>
      <stop offset="1" stop-color="#fdc70c"/>
    </linearGradient>
    <linearGradient id="linear-gradient9" x1="58.21" y1="347.02" x2="130.01" y2="347.02" gradientTransform="translate(0 478) scale(1 -1)" gradientUnits="userSpaceOnUse">
      <stop offset="0" stop-color="#fb17f8"/>
      <stop offset="1" stop-color="#fdc70c"/>
    </linearGradient>
    <linearGradient id="linear-gradient10" x1="58.21" y1="347.02" x2="130.01" y2="347.02" gradientTransform="translate(0 478) scale(1 -1)" gradientUnits="userSpaceOnUse">
      <stop offset="0" stop-color="#fb17f8"/>
      <stop offset="1" stop-color="#fdc70c"/>
    </linearGradient>
    <linearGradient id="linear-gradient11" x1="58.21" y1="347.02" x2="130.01" y2="347.02" gradientTransform="translate(0 478) scale(1 -1)" gradientUnits="userSpaceOnUse">
      <stop offset="0" stop-color="#fb17f8"/>
      <stop offset="1" stop-color="#fdc70c"/>
    </linearGradient>
    <linearGradient id="linear-gradient12" x1="58.21" y1="347.02" x2="130.01" y2="347.02" gradientTransform="translate(0 478) scale(1 -1)" gradientUnits="userSpaceOnUse">
      <stop offset="0" stop-color="#fb17f8"/>
      <stop offset="1" stop-color="#fdc70c"/>
    </linearGradient>
    <linearGradient id="linear-gradient13" x1="58.21" y1="347.02" x2="130.01" y2="347.02" gradientTransform="translate(0 478) scale(1 -1)" gradientUnits="userSpaceOnUse">
      <stop offset="0" stop-color="#fb17f8"/>
      <stop offset="1" stop-color="#fdc70c"/>
    </linearGradient>
    <linearGradient id="linear-gradient14" x1="58.21" y1="347.02" x2="130.01" y2="347.02" gradientTransform="translate(0 478) scale(1 -1)" gradientUnits="userSpaceOnUse">
      <stop offset="0" stop-color="#fb17f8"/>
      <stop offset="1" stop-color="#fdc70c"/>
    </linearGradient>
    <linearGradient id="linear-gradient15" x1="58.21" y1="347.02" x2="130.01" y2="347.02" gradientTransform="translate(0 478) scale(1 -1)" gradientUnits="userSpaceOnUse">
      <stop offset="0" stop-color="#fb17f8"/>
      <stop offset="1" stop-color="#fdc70c"/>
    </linearGradient>
    <linearGradient id="linear-gradient16" x1="58.21" y1="347.02" x2="130.01" y2="347.02" gradientTransform="translate(0 478) scale(1 -1)" gradientUnits="userSpaceOnUse">
      <stop offset="0" stop-color="#fb17f8"/>
      <stop offset="1" stop-color="#fdc70c"/>
    </linearGradient>
  </defs>
  <g class="st9">
    <g id="Layer_11">
      <path class="st20" d="M70.21,476.19c2.93-.15,5.71-6.11,9.18-14.05,11.7-26.95,30.01-57.13,49.43-81.05,49.03-59.75,106.9-89.63,79.15-169.07-2.39-5.88-4.48-12.62-8.72-8.71-5.97,9.61-27.5,61.56-45.98,33.02-7.19-14.98-1.46-34.26-.03-53.66,5.1-57.86,20.07-98.87-.19-159.66-3.03-8.33-6.94-21.55-15.69-23-4.27-.29-8.63,4.13-11.56,7.71-19.98,24.59-41.62,54.98-62.11,91.21C38.55,142.64,15.9,198.19,4.28,238.96c-3.05,10.72-5.7,20.65-3.42,31.97,2.82,18.64,20.53,35.22,34.91,47.28,13.95,14.13,6.33,34.64,7.12,52.4-.39,26.62,5.3,59.56,14.91,84.66,3.3,7.29,5.19,17.67,11.97,20.93h.44Z"/>
      <g class="st18">
        <g>
          <g>
            <path class="st2" d="M81.45,402.71c-1.21-.21-1.86-2.4-2.29-5.68-2.19-18.65,1.38-39.92,9.14-56.55,11.07-22.95,31.39-52.4,51.65-61.49.21-.09.46-.09.65.02,6.35,3.62,2.46,18.21,1.14,24.55,0,.03-.02.07-.03.1-9.15,25.44-21.43,40.78-45.8,80.47,0,.01-.02.02-.02.04-4.62,6.35-7.68,14.16-13.95,18.53h-.49Z"/>
            <g class="st6">
              <path class="st0" d="M81.45,402.71c-1.21-.21-1.86-2.4-2.29-5.68-2.19-18.65,1.38-39.92,9.14-56.55,11.07-22.95,31.39-52.4,51.65-61.49.21-.09.46-.09.65.02,6.35,3.62,2.46,18.21,1.14,24.55,0,.03-.02.07-.03.1-9.15,25.44-21.43,40.78-45.8,80.47,0,.01-.02.02-.02.04-4.62,6.35-7.68,14.16-13.95,18.53h-.49Z"/>
            </g>
          </g>
          <g class="st6">
            <path class="st15" d="M81.45,402.71c-1.21-.21-1.86-2.4-2.29-5.68-2.19-18.65,1.38-39.92,9.14-56.55,11.07-22.95,31.39-52.4,51.65-61.49.21-.09.46-.09.65.02,6.35,3.62,2.46,18.21,1.14,24.55,0,.03-.02.07-.03.1-9.15,25.44-21.43,40.78-45.8,80.47,0,.01-.02.02-.02.04-4.62,6.35-7.68,14.16-13.95,18.53h-.49Z"/>
            <g class="st6">
              <path class="st12" d="M81.45,402.71c-1.21-.21-1.86-2.4-2.29-5.68-2.19-18.65,1.38-39.92,9.14-56.55,11.07-22.95,31.39-52.4,51.65-61.49.21-.09.46-.09.65.02,6.35,3.62,2.46,18.21,1.14,24.55,0,.03-.02.07-.03.1-9.15,25.44-21.43,40.78-45.8,80.47,0,.01-.02.02-.02.04-4.62,6.35-7.68,14.16-13.95,18.53h-.49Z"/>
            </g>
          </g>
        </g>
        <g class="st7">
          <g>
            <path class="st14" d="M81.45,402.71c-1.21-.21-1.86-2.4-2.29-5.68-2.19-18.65,1.38-39.92,9.14-56.55,11.07-22.95,31.39-52.4,51.65-61.49.21-.09.46-.09.65.02,6.35,3.62,2.46,18.21,1.14,24.55,0,.03-.02.07-.03.1-9.15,25.44-21.43,40.78-45.8,80.47,0,.01-.02.02-.02.04-4.62,6.35-7.68,14.16-13.95,18.53h-.49Z"/>
            <g class="st6">
              <path class="st17" d="M81.45,402.71c-1.21-.21-1.86-2.4-2.29-5.68-2.19-18.65,1.38-39.92,9.14-56.55,11.07-22.95,31.39-52.4,51.65-61.49.21-.09.46-.09.65.02,6.35,3.62,2.46,18.21,1.14,24.55,0,.03-.02.07-.03.1-9.15,25.44-21.43,40.78-45.8,80.47,0,.01-.02.02-.02.04-4.62,6.35-7.68,14.16-13.95,18.53h-.49Z"/>
            </g>
          </g>
          <g class="st6">
            <path class="st11" d="M81.45,402.71c-1.21-.21-1.86-2.4-2.29-5.68-2.19-18.65,1.38-39.92,9.14-56.55,11.07-22.95,31.39-52.4,51.65-61.49.21-.09.46-.09.65.02,6.35,3.62,2.46,18.21,1.14,24.55,0,.03-.02.07-.03.1-9.15,25.44-21.43,40.78-45.8,80.47,0,.01-.02.02-.02.04-4.62,6.35-7.68,14.16-13.95,18.53h-.49Z"/>
            <g class="st6">
              <path class="st4" d="M81.45,402.71c-1.21-.21-1.86-2.4-2.29-5.68-2.19-18.65,1.38-39.92,9.14-56.55,11.07-22.95,31.39-52.4,51.65-61.49.21-.09.46-.09.65.02,6.35,3.62,2.46,18.21,1.14,24.55,0,.03-.02.07-.03.1-9.15,25.44-21.43,40.78-45.8,80.47,0,.01-.02.02-.02.04-4.62,6.35-7.68,14.16-13.95,18.53h-.49Z"/>
            </g>
          </g>
        </g>
      </g>
      <g class="st18">
        <g>
          <g>
            <path class="st3" d="M59.62,209.45c-1.31.05-1.65-2.23-1.26-6.17.4-3.95,1.35-9.25,2.36-14.39,10.7-49.7,29.62-80.71,56.35-125.94,22.52-35.24,9.47,29.08,6.32,40.39-7.52,26.96-25.98,52.89-40.52,75.21-7.07,9.66-13.66,23.52-22.84,30.83l-.42.07h.01Z"/>
            <g class="st6">
              <path class="st1" d="M59.62,209.45c-1.31.05-1.65-2.23-1.26-6.17.4-3.95,1.35-9.25,2.36-14.39,10.7-49.7,29.62-80.71,56.35-125.94,22.52-35.24,9.47,29.08,6.32,40.39-7.52,26.96-25.98,52.89-40.52,75.21-7.07,9.66-13.66,23.52-22.84,30.83l-.42.07h.01Z"/>
            </g>
          </g>
          <g class="st6">
            <path class="st5" d="M59.62,209.45c-1.31.05-1.65-2.23-1.26-6.17.4-3.95,1.35-9.25,2.36-14.39,10.7-49.7,29.62-80.71,56.35-125.94,22.52-35.24,9.47,29.08,6.32,40.39-7.52,26.96-25.98,52.89-40.52,75.21-7.07,9.66-13.66,23.52-22.84,30.83l-.42.07h.01Z"/>
            <g class="st6">
              <path class="st10" d="M59.62,209.45c-1.31.05-1.65-2.23-1.26-6.17.4-3.95,1.35-9.25,2.36-14.39,10.7-49.7,29.62-80.71,56.35-125.94,22.52-35.24,9.47,29.08,6.32,40.39-7.52,26.96-25.98,52.89-40.52,75.21-7.07,9.66-13.66,23.52-22.84,30.83l-.42.07h.01Z"/>
            </g>
          </g>
        </g>
        <g class="st7">
          <g>
            <path class="st19" d="M59.62,209.45c-1.31.05-1.65-2.23-1.26-6.17.4-3.95,1.35-9.25,2.36-14.39,10.7-49.7,29.62-80.71,56.35-125.94,22.52-35.24,9.47,29.08,6.32,40.39-7.52,26.96-25.98,52.89-40.52,75.21-7.07,9.66-13.66,23.52-22.84,30.83l-.42.07h.01Z"/>
            <g class="st6">
              <path class="st13" d="M59.62,209.45c-1.31.05-1.65-2.23-1.26-6.17.4-3.95,1.35-9.25,2.36-14.39,10.7-49.7,29.62-80.71,56.35-125.94,22.52-35.24,9.47,29.08,6.32,40.39-7.52,26.96-25.98,52.89-40.52,75.21-7.07,9.66-13.66,23.52-22.84,30.83l-.42.07h.01Z"/>
            </g>
          </g>
          <g class="st6">
            <path class="st16" d="M59.62,209.45c-1.31.05-1.65-2.23-1.26-6.17.4-3.95,1.35-9.25,2.36-14.39,10.7-49.7,29.62-80.71,56.35-125.94,22.52-35.24,9.47,29.08,6.32,40.39-7.52,26.96-25.98,52.89-40.52,75.21-7.07,9.66-13.66,23.52-22.84,30.83l-.42.07h.01Z"/>
            <g class="st6">
              <path class="st8" d="M59.62,209.45c-1.31.05-1.65-2.23-1.26-6.17.4-3.95,1.35-9.25,2.36-14.39,10.7-49.7,29.62-80.71,56.35-125.94,22.52-35.24,9.47,29.08,6.32,40.39-7.52,26.96-25.98,52.89-40.52,75.21-7.07,9.66-13.66,23.52-22.84,30.83l-.42.07h.01Z"/>
            </g>
          </g>
        </g>
      </g>
    </g>
  </g>
</svg>