<?xml version="1.0" encoding="UTF-8"?>
<svg xmlns="http://www.w3.org/2000/svg" xmlns:xlink="http://www.w3.org/1999/xlink" viewBox="0 0 1296 1728">
  <defs>
    <style>
      .cls-1 {
        opacity: .9;
      }

      .cls-2 {
        fill: url(#linear-gradient-2);
      }

      .cls-3 {
        fill: url(#linear-gradient-4);
      }

      .cls-4 {
        fill: url(#linear-gradient);
        mix-blend-mode: overlay;
      }

      .cls-5 {
        fill: url(#linear-gradient-3);
      }

      .cls-6 {
        fill: url(#linear-gradient-5);
      }

      .cls-7 {
        isolation: isolate;
      }

      .cls-8 {
        fill: #fb17f8;
        opacity: .36;
      }

      .cls-9 {
        fill: #fff;
        opacity: .7;
      }
    </style>
    <linearGradient id="linear-gradient" x1="1404" y1="1620" x2="-108" y2="108" gradientUnits="userSpaceOnUse">
      <stop offset="0" stop-color="#c69"/>
      <stop offset="1" stop-color="#f33"/>
    </linearGradient>
    <linearGradient id="linear-gradient-2" x1="803.21" y1="300.91" x2="898.82" y2="750.55" gradientTransform="translate(174.76 -76.78) rotate(12)" gradientUnits="userSpaceOnUse">
      <stop offset="0" stop-color="#36ffff"/>
      <stop offset="1" stop-color="#007bff"/>
    </linearGradient>
    <linearGradient id="linear-gradient-3" x1="518.9" y1="784.2" x2="545.21" y2="907.94" gradientTransform="translate(174.76 -76.78) rotate(12)" gradientUnits="userSpaceOnUse">
      <stop offset="0" stop-color="#36ffff"/>
      <stop offset="1" stop-color="#007bff"/>
    </linearGradient>
    <linearGradient id="linear-gradient-4" x1="761.98" y1="1221.81" x2="574.86" y2="341.84" xlink:href="#linear-gradient-3"/>
    <linearGradient id="linear-gradient-5" x1="287.68" y1="1148.27" x2="804.56" y2="1148.27" gradientUnits="userSpaceOnUse">
      <stop offset="0" stop-color="#fb17f8"/>
      <stop offset="1" stop-color="#fdc70c"/>
    </linearGradient>
  </defs>
  <g class="cls-7">
    <g id="Layer_2" data-name="Layer 2">
      <rect class="cls-4" width="1296" height="1728"/>
    </g>
    <g id="Layer_4" data-name="Layer 4">
      <g>
        <path class="cls-2" d="M981.06,384.61c17.6,29.54,33.88,69.45,24.53,111.04-4.72,20.99-14.34,35.13-17.45,39.82-24.22,36.49-67.27,122.08-146.04,308.84l-54.79-20.64,193.76-439.05Z"/>
        <path class="cls-5" d="M556.27,924.71c-10.12-1.42-28.54-11.93-57.97-37.53-5-4.35-39.1-33.74-29.17-69.39,2.45-8.81,6.61-15.42,9.72-19.6-.86,1.63-1.82,3.84-2.43,6.56-.4,1.74-.57,3.33-.63,4.69.13,1.56.49,3.78,1.51,6.26,1.06,2.6,2.45,4.51,3.49,5.73,1.59,1.48,3.92,3.52,6.9,5.73,4.23,3.14,7.76,5.11,14.46,8.63,4.88,2.56,10.64,5.53,17.17,8.77,3.23,1.51,7.77,3.65,13.21,6.29,9.75,4.73,12.21,6.11,13.32,6.75,3.51,2.01,8.36,5.04,13.85,9.35,1.01.92,8.32,7.7,10.45,15.36.94,3.38.94,6.55.94,6.55,0,2.51-.41,4.58-.8,6.02-.81,4-1.7,6.57-2.3,8.09-.14.35-.4.98-.66,1.6-.06.13-1.15,2.73-2.26,5.04-1.44,3-2.89,5.49-4.27,7.85-1.14,1.95-2.65,4.42-4.5,7.25Z"/>
        <path class="cls-3" d="M359.47,1276.72c-48.12-13.18,94.69-208.4,185.04-335.2,9.46-13.18,21.74-30.47,24.78-44.34,6.44-21.89-16.56-35.69-34.22-43.81-19.84-10.06-49.95-22.7-56.68-33.5-7.05-10.94-1.43-20.03,6.86-32.2,125.5-147.68,275.91-277.48,453.49-395.89,11.2-7.47,32.36-19.35,40.21-12.65,4.28,3.66,3.09,11.59,2.64,14.58-6.68,44.21-125.14,258.99-148.8,339.59-4.23,14.42-11.88,37.4,1.59,50.57,10.73,10.5,30.57,18.33,44.69,27.88,21.24,13.92,39.21,34.54,47.33,56.77,34.46,82.4-450.14,406.32-566.53,408.27l-.38-.08Z"/>
        <path class="cls-9" d="M766.63,949.24c3.53,6.1,48.96-30.62,67.11-49.87,26.89-26.54,45.84-52.93,35.88-51.47-22.76,5.45-103.54,81.8-103.25,101.07l.26.27Z"/>
        <path class="cls-9" d="M901.2,464.31c3.86,2.19,29.9-19.47,26.16-23.13-5.68-.37-26.93,17.83-26.3,22.97l.14.16Z"/>
        <path class="cls-9" d="M521.17,813.27c21.44,2.91,146.29-105.22,173.26-128.35,25.5-22.22,56.51-50.67,83-76.51,20.05-19.71,34.76-34.37,49.78-52.46,4.45-6.27,9.98-11.05,10.22-17.72-6.92-4.87-34.96,16.4-73.67,45.4-33.15,25.57-70.49,56.61-99.82,82.39-27.32,24.58-142.59,126-142.84,147.17l.07.08Z"/>
      </g>
      <g class="cls-1">
        <path class="cls-6" d="M550.72,982.24c-9.52,2.13-18.94,3.97-28.39,3.82-40.12,1.46-51.51-55.09-84.51-36.66-22.6,12.3-41.05,35.49-52.76,58.56-24.78,47.1.95,98.52-16.16,142.42-21.85,53.07-67.12,105.81-80.12,161.79-19.35,102.31,221.98-30.02,267.62-36.35,31.5-7.43,62.62.87,94.27.27,48.88-.71,105.3-39.55,138.73-78.14,13.32-15.35,27.22-41.42-2.45-42.56-241.79,5.86,213.22-280.17-231.95-174.14l-4.27,1Z"/>
        <path class="cls-8" d="M749,970.38c-9.78-8.18-28.99-7.37-49.28-5.38-33.08,3.79-67.51,6.2-100.46,11.44-62.8,8.13-109.48,44.54-137.58,97.5-31.98,53.81-68.88,114.72-99.73,170.79-5.41,10.61-5.74,16.64-3.21,19.74,5.29,6.49,23.17.05,30.99-2.85,45.18-16.72,189.25-94.18,237.43-120.23,12.89-7.25,30.24-18.01,49.21-33.1,16.14-12.84,32.47-25.83,45.27-43.33,9.04-12.36,27.93-42.84,27.36-94.59Z"/>
      </g>
    </g>
  </g>
</svg>