<?xml version="1.0" encoding="UTF-8"?>
<svg id="Layer_1" data-name="Layer 1" xmlns="http://www.w3.org/2000/svg" xmlns:xlink="http://www.w3.org/1999/xlink" viewBox="0 0 400 400">
  <defs>
    <style>
      .cls-1 {
        fill: url(#linear-gradient-2);
      }

      .cls-2 {
        fill: #1a1423;
      }

      .cls-3 {
        fill: url(#linear-gradient-4);
      }

      .cls-4 {
        fill: url(#linear-gradient-3);
      }

      .cls-5 {
        fill: url(#linear-gradient-5);
      }

      .cls-6 {
        fill: url(#linear-gradient-6);
      }

      .cls-7 {
        fill: url(#linear-gradient);
      }
    </style>
    <linearGradient id="linear-gradient" x1="0" y1="105.21" x2="146.53" y2="105.21" gradientUnits="userSpaceOnUse">
      <stop offset="0" stop-color="#63c132"/>
      <stop offset="1" stop-color="#17c3b2"/>
    </linearGradient>
    <linearGradient id="linear-gradient-2" x1=".07" y1="279.07" x2="100.69" y2="279.07" gradientUnits="userSpaceOnUse">
      <stop offset="0" stop-color="#4895ef"/>
      <stop offset="1" stop-color="#4cc9f0"/>
    </linearGradient>
    <linearGradient id="linear-gradient-3" x1="87.74" y1="349.55" x2="357.57" y2="349.55" gradientUnits="userSpaceOnUse">
      <stop offset="0" stop-color="#dc2f02"/>
      <stop offset="1" stop-color="#fb5607"/>
    </linearGradient>
    <linearGradient id="linear-gradient-4" x1="333.4" y1="256.5" x2="400" y2="256.5" gradientUnits="userSpaceOnUse">
      <stop offset="0" stop-color="#f1ff1f"/>
      <stop offset="1" stop-color="#b8ff3f"/>
    </linearGradient>
    <linearGradient id="linear-gradient-5" x1="202.55" y1="98.73" x2="399.81" y2="98.73" gradientUnits="userSpaceOnUse">
      <stop offset="0" stop-color="#ff6ec4"/>
      <stop offset="1" stop-color="#6a00f4"/>
    </linearGradient>
    <linearGradient id="linear-gradient-6" x1="141.1" y1="22.3" x2="199.4" y2="22.3" gradientUnits="userSpaceOnUse">
      <stop offset="0" stop-color="#7b7194"/>
      <stop offset="1" stop-color="#4e4a5a"/>
    </linearGradient>
  </defs>
  <path class="cls-7" d="M39.33,192.61c-.55,1.88-2.11,3.55-4.04,4.61-1.61.83-3.24.78-4.98.78-7.54-.07-15.14-.12-22.65-.2-3.35.32-7-2.54-7.67-5.65.48-17.94,4.53-51.54,25.62-89.73C50.85,56.69,93.85,26.03,129.13,12.84c1.7-.68,3.42-.56,5.32.42,2.08,1.05,3.05,3.12,3.76,5.21,2.28,6.12,4.58,12.29,6.86,18.42.66,1.92,1.55,3.57,1.47,5.66-.17,2.55-1.14,4.92-3.3,5.84-9.8,3.86-30.25,12.95-50.61,31.23-7.43,6.66-14.84,14.54-21.72,23.83-21.07,27.31-30.52,63.93-31.54,89.06l-.03.1Z"/>
  <path class="cls-1" d="M4.16,201.84c.58-.28,1.03-.32,1.64-.32,4.35.03,22.99.16,27.54.19,3.44-.09,5.96,4.18,6.04,7.46,1.62,34.87,17.82,73.81,42.39,99.57,4.55,4.94,9.47,9.62,14.23,13.66,3.05,2.08,5.57,6.06,4.38,10.05-.5,1.79-1.6,3.13-2.63,4.63-3.91,5.47-7.83,10.97-11.74,16.43-.85,1.16-1.82,2.27-3.17,2.75-3.45,1.05-8.52-.25-11.32-2.76-6.11-5.27-12.86-11.88-18.77-18.53-24.64-27.19-42.72-63.88-49.32-99.61-1.71-8.8-2.82-17.8-3.32-25.95-.29-2.91,1.57-6.1,3.97-7.53l.09-.04Z"/>
  <path class="cls-4" d="M112.67,335.27c-.69-.33-1.97-.76-3.57-.63-1,.08-2.05.39-2.91.85-1.93,1-2.81,2.61-4.08,4.26-4.22,5.73-8.51,11.54-12.7,17.25-2.98,3.25-1.68,8.47,1.67,10.66,12.75,9.2,70.56,40.58,136.97,30.3,65.7-7.14,118.6-58.36,128.53-73.27,1.42-1.5,1.21-4.65.13-6.6-.74-1.33-1.86-2.19-3.05-3.1-5.56-4.19-11.2-8.41-16.78-12.61-1.77-1.26-3.22-2.8-5.48-3.17-1.93-.28-3.49.04-4.74.93-8.23,9.54-30.52,36.48-72.24,51.63-7.35,2.67-15.78,4.99-23.93,6.56-44.61,9.58-92.99-6.24-117.73-23.01l-.08-.04Z"/>
  <path class="cls-3" d="M366.7,200.43c-4.19.65-6.27,5.35-6.06,9.23-.57,10.91-3.32,26.76-7.26,38.74-4.74,15.37-12.47,30.16-18.5,39.35-.76,1.21-1.42,2.23-1.47,3.82-.14,2.71,1.69,4.96,3.93,6.29,6.29,4.34,12.65,8.73,18.94,13.06,2.93,2.48,7.49,2.45,10.02-.56,6.93-9.89,13.64-21.84,20.1-37.8,8.42-20.11,13.27-47.78,13.59-63.22.06-1.82.06-3.18-1.03-4.99-1.87-3.22-5.29-4.18-8.74-3.93-7.77.06-15.62-.3-23.37,0l-.14.02Z"/>
  <path class="cls-5" d="M202.74,34.2c.69,2.57,3.58,4.6,5.93,4.83,30.53,1,79.86,17.83,109.43,51.45,32.61,33.58,42.27,82.37,42.78,101.04.78,3.48,3.94,6.19,7.66,5.78,7.53-.04,15.17-.07,22.7-.13,1.35-.03,2.58-.11,3.84-.67,2.39-1.11,5-3.89,4.7-6.45.78-16.89-11.36-84.89-53.66-126.98C299.51,10.6,222.61-.67,208.25.17c-3.32.35-5.63,4.18-5.35,7.61.03,8.72-.66,17.58-.2,26.28l.03.14Z"/>
  <path class="cls-6" d="M155.43,44.59c-3.4.3-6.67-2.61-7.28-5.97-2.17-7.43-4.36-14.98-6.54-22.45-1.91-4.59,1.85-9.31,6.46-10.01,12.75-2.93,28.96-5.26,42.37-6.04,5.04-.87,9.32,3.07,8.92,8.16,0,7.5,0,15.07,0,22.56.42,4.32-2.54,8.95-7.21,8.84-4.21.24-8.71.58-13.39,1.12-8.08.82-15.93,2.45-23.19,3.78h-.14Z"/>
  <g>
    <path class="cls-2" d="M131.74,204.54c1.89,1.87,4.74,2.8,8.52,2.8,5.01,0,9.09-1.99,12.24-5.96,3.15-3.97,5.48-10.66,7.01-20.08-1.77,2.75-4.31,4.9-7.61,6.46-3.3,1.56-6.78,2.34-10.45,2.34-5.44,0-9.78-1.45-13.02-4.35-3.24-2.9-4.86-7.01-4.86-12.33,0-1.34.15-2.99.46-4.95,1.16-6.54,3.99-11.81,8.48-15.81,4.49-4,10.25-6,17.28-6,6.6,0,11.35,1.68,14.25,5.04,2.9,3.36,4.35,8.31,4.35,14.85,0,3.48-.46,7.91-1.38,13.29-1.35,7.7-3.13,14.06-5.36,19.07-2.23,5.01-5.23,8.83-8.98,11.46-3.76,2.63-8.48,3.94-14.16,3.94s-10.25-1.48-13.15-4.45c-2.9-2.96-4.35-6.83-4.35-11.6,0-.79.03-1.4.09-1.83h7.7c.06,3.54,1.04,6.25,2.93,8.11ZM154.88,179.24c3.08-2.54,5-5.97,5.73-10.31.24-1.71.37-2.93.37-3.67,0-3.6-1.05-6.45-3.16-8.52-2.11-2.08-5.15-3.12-9.12-3.12-4.28,0-7.92,1.35-10.91,4.03-3,2.69-4.89,6.23-5.68,10.63-.18,1.16-.27,2.32-.27,3.48,0,3.48,1.02,6.23,3.07,8.25,2.05,2.02,5.12,3.03,9.21,3.03s7.68-1.27,10.77-3.8Z"/>
    <path class="cls-2" d="M225.51,155.18h-32.27l-3.67,20.9c1.77-1.96,4.12-3.56,7.06-4.81,2.93-1.25,5.99-1.88,9.17-1.88,6.29,0,10.86,1.59,13.7,4.77,2.84,3.18,4.26,7.21,4.26,12.1,0,1.53-.15,3.21-.46,5.04-1.22,6.78-4.14,12.33-8.75,16.64-4.62,4.31-10.62,6.46-18.01,6.46-6.42,0-11.32-1.65-14.71-4.95-3.39-3.3-5.03-7.7-4.9-13.2h8.07c.18,3.48,1.41,6.2,3.67,8.16,2.26,1.96,5.32,2.93,9.17,2.93,4.83,0,8.74-1.45,11.73-4.35,2.99-2.9,4.92-6.74,5.78-11.5.24-1.22.37-2.54.37-3.94,0-3.54-1.02-6.26-3.07-8.16-2.05-1.89-5.12-2.84-9.21-2.84-3.3,0-6.28.78-8.94,2.34-2.66,1.56-4.78,3.68-6.37,6.37h-7.88l6.6-37.4h39.88l-1.19,7.33Z"/>
    <path class="cls-2" d="M289.49,150.23l-48.4,63.98h-8.34l48.49-63.98h8.25ZM242.93,153.07c2.93-2.44,6.36-3.67,10.27-3.67,3.42,0,6.16.95,8.2,2.84,2.05,1.9,3.07,4.49,3.07,7.79,0,.86-.09,1.8-.28,2.84-.73,4.1-2.58,7.38-5.55,9.85-2.96,2.47-6.37,3.71-10.22,3.71-3.42,0-6.16-.95-8.2-2.84-2.05-1.89-3.07-4.49-3.07-7.79,0-.98.09-1.96.27-2.93.73-4.09,2.57-7.36,5.5-9.81ZM246.87,156.69c-1.47,1.44-2.41,3.5-2.84,6.19-.18.92-.28,1.74-.28,2.48,0,1.9.49,3.35,1.47,4.35.98,1.01,2.35,1.51,4.12,1.51,2.08,0,3.85-.72,5.32-2.15,1.47-1.44,2.44-3.5,2.93-6.19.12-.55.18-1.31.18-2.29,0-1.96-.49-3.45-1.47-4.49-.98-1.04-2.32-1.56-4.03-1.56-2.14,0-3.94.72-5.41,2.15ZM263.83,191.67c2.93-2.44,6.35-3.67,10.27-3.67,3.36,0,6.06.95,8.11,2.84,2.05,1.9,3.07,4.49,3.07,7.79,0,.92-.09,1.9-.28,2.93-.73,4.1-2.57,7.38-5.5,9.85s-6.33,3.71-10.17,3.71c-3.42,0-6.16-.95-8.2-2.84-2.05-1.89-3.07-4.49-3.07-7.79,0-.98.09-1.96.28-2.93.73-4.15,2.57-7.45,5.5-9.9ZM267.77,195.33c-1.47,1.41-2.45,3.48-2.93,6.23-.18.92-.27,1.71-.27,2.38,0,1.89.5,3.35,1.51,4.35,1.01,1.01,2.37,1.51,4.08,1.51,2.08,0,3.85-.7,5.32-2.11,1.47-1.4,2.44-3.45,2.93-6.14.12-.55.18-1.34.18-2.38,0-1.96-.49-3.44-1.47-4.45s-2.32-1.51-4.03-1.51c-2.08,0-3.85.7-5.32,2.11Z"/>
  </g>
  <g>
    <path class="cls-2" d="M123.22,234.54c.67-.91,1.49-1.61,2.47-2.12s1.99-.77,3.06-.77c1.27,0,2.32.31,3.16.92.84.61,1.38,1.48,1.62,2.6h-1.82c-.2-.68-.57-1.2-1.12-1.58-.54-.37-1.24-.56-2.08-.56s-1.57.19-2.27.56c-.71.37-1.3.91-1.79,1.6-.49.69-.82,1.5-.98,2.41-.06.29-.08.62-.08,1,0,1.09.32,1.95.96,2.59.64.64,1.49.96,2.56.96.84,0,1.61-.18,2.28-.55.68-.37,1.23-.89,1.67-1.57h1.82c-.63,1.11-1.48,1.97-2.52,2.58-1.05.61-2.21.91-3.48.91-.94,0-1.78-.2-2.52-.59s-1.31-.95-1.72-1.67-.62-1.54-.62-2.48c0-.39.03-.78.1-1.18.2-1.13.64-2.15,1.31-3.06Z"/>
    <path class="cls-2" d="M136.3,243.08c-.58-.32-1.04-.76-1.36-1.33-.32-.57-.48-1.24-.48-1.99,0-1.03.24-1.98.72-2.84.48-.86,1.14-1.54,1.98-2.04s1.77-.75,2.81-.75c.77,0,1.45.16,2.04.47.59.32,1.06.76,1.38,1.33s.49,1.24.49,2.01c0,1.03-.24,1.98-.73,2.83-.49.86-1.16,1.53-2,2.03s-1.78.75-2.82.75c-.77,0-1.44-.16-2.03-.48ZM140.46,241.69c.58-.39,1.03-.92,1.36-1.57.33-.65.49-1.35.49-2.09,0-.84-.24-1.49-.73-1.94-.49-.45-1.1-.67-1.83-.67s-1.37.2-1.93.59c-.57.39-1.01.92-1.32,1.58-.31.66-.47,1.36-.47,2.12,0,.82.23,1.46.7,1.91s1.06.67,1.78.67,1.37-.2,1.95-.59Z"/>
    <path class="cls-2" d="M159.85,234.87c.56.51.84,1.24.84,2.21,0,.36-.03.67-.08.95l-.95,5.38h-1.5l.92-5.17c.04-.23.07-.48.07-.75,0-.68-.18-1.19-.54-1.54-.36-.35-.87-.53-1.52-.53-.76,0-1.4.23-1.94.69-.54.46-.91,1.12-1.11,1.99l-.95,5.3h-1.5l.92-5.17c.04-.25.07-.51.07-.77,0-.67-.18-1.17-.54-1.52-.36-.35-.87-.53-1.52-.53-.79,0-1.46.25-2.02.76-.56.5-.92,1.24-1.08,2.19v-.03l-.9,5.07h-1.52l1.62-9.13h1.52l-.23,1.32c.38-.48.84-.84,1.4-1.1.56-.25,1.14-.38,1.75-.38.77,0,1.41.17,1.94.52s.88.85,1.04,1.52c.38-.64.89-1.14,1.54-1.5s1.34-.53,2.06-.53c.93,0,1.68.25,2.24.76Z"/>
    <path class="cls-2" d="M166.56,234.65c.66-.35,1.37-.52,2.15-.52.71,0,1.34.15,1.89.44.55.29.98.72,1.27,1.27.3.55.45,1.2.45,1.94,0,.32-.03.67-.1,1.03-.17.92-.5,1.74-1.01,2.47-.51.72-1.12,1.28-1.85,1.68-.73.4-1.5.6-2.31.6s-1.43-.18-1.96-.53-.91-.79-1.14-1.31l-1.05,6.02h-1.52l2.37-13.47h1.52l-.3,1.68c.4-.52.93-.96,1.58-1.31ZM170.74,238.04c0-.81-.24-1.45-.72-1.91-.48-.46-1.09-.69-1.85-.69-.56,0-1.09.14-1.62.41-.52.27-.97.67-1.34,1.18-.37.52-.62,1.11-.74,1.79-.04.23-.07.49-.07.77,0,.81.24,1.45.72,1.92.48.47,1.1.71,1.84.71.57,0,1.11-.14,1.62-.41s.96-.67,1.33-1.18c.37-.52.62-1.12.74-1.82.04-.23.07-.49.07-.77Z"/>
    <path class="cls-2" d="M177.11,231.08l-2.18,12.33h-1.52l2.18-12.33h1.52Z"/>
    <path class="cls-2" d="M185.09,234.57c.56.29.99.71,1.28,1.23.29.53.44,1.13.44,1.81,0,.23-.03.52-.08.85-.04.29-.12.59-.22.9h-7.3c-.02.22-.03.38-.03.48,0,.77.23,1.36.69,1.79.46.43,1.06.64,1.81.64.66,0,1.23-.15,1.73-.46.49-.31.87-.71,1.12-1.22h1.63c-.4.88-1.01,1.59-1.84,2.14-.83.55-1.79.83-2.88.83-1.14,0-2.06-.33-2.76-.99-.69-.66-1.04-1.56-1.04-2.71,0-.32.03-.67.1-1.03.17-.94.51-1.77,1.02-2.48.51-.71,1.14-1.26,1.89-1.64.75-.38,1.56-.58,2.44-.58.77,0,1.43.15,1.99.44ZM185.24,237.64c0-.71-.22-1.26-.67-1.65-.45-.39-1.04-.58-1.76-.58-.78,0-1.48.25-2.12.76-.63.5-1.06,1.2-1.28,2.09h5.78c.03-.22.05-.43.05-.62Z"/>
    <path class="cls-2" d="M190.14,240.91c-.03.17-.05.31-.05.43,0,.28.09.48.26.6.17.12.45.18.84.18h1.12l-.23,1.28h-1.37c-.72,0-1.26-.14-1.62-.42-.36-.28-.54-.73-.54-1.37,0-.24.02-.48.07-.72l.95-5.38h-1.17l.22-1.25h1.18l.4-2.3h1.53l-.4,2.3h2.37l-.22,1.25h-2.38l-.95,5.38Z"/>
    <path class="cls-2" d="M201.49,234.57c.56.29.99.71,1.28,1.23.29.53.44,1.13.44,1.81,0,.23-.03.52-.08.85-.04.29-.12.59-.22.9h-7.3c-.02.22-.03.38-.03.48,0,.77.23,1.36.69,1.79.46.43,1.06.64,1.81.64.66,0,1.23-.15,1.73-.46.49-.31.87-.71,1.12-1.22h1.63c-.4.88-1.01,1.59-1.84,2.14-.83.55-1.79.83-2.88.83-1.14,0-2.06-.33-2.76-.99-.69-.66-1.04-1.56-1.04-2.71,0-.32.03-.67.1-1.03.17-.94.51-1.77,1.02-2.48.51-.71,1.14-1.26,1.89-1.64.75-.38,1.56-.58,2.44-.58.77,0,1.43.15,1.99.44ZM201.64,237.64c0-.71-.22-1.26-.68-1.65-.45-.39-1.04-.58-1.76-.58-.78,0-1.48.25-2.12.76-.63.5-1.06,1.2-1.28,2.09h5.78c.03-.22.05-.43.05-.62Z"/>
    <path class="cls-2" d="M205.49,236.35c.51-.71,1.12-1.25,1.86-1.64.73-.39,1.51-.58,2.33-.58.7,0,1.33.16,1.88.49.56.33.95.76,1.18,1.29l.85-4.83h1.53l-2.18,12.33h-1.53l.32-1.72c-.39.54-.91.99-1.57,1.34-.66.35-1.38.53-2.17.53-.71,0-1.34-.15-1.88-.46-.54-.31-.97-.74-1.27-1.31-.31-.57-.46-1.22-.46-1.97,0-.33.03-.67.1-1.02.17-.93.5-1.75,1.01-2.46ZM212.29,238.08c0-.81-.24-1.45-.72-1.93-.48-.47-1.1-.71-1.84-.71-.57,0-1.11.13-1.62.4s-.96.66-1.33,1.17c-.37.51-.61,1.11-.73,1.8-.04.23-.07.49-.07.77,0,.82.24,1.47.72,1.94.48.47,1.09.71,1.83.71.57,0,1.11-.14,1.62-.41s.96-.67,1.33-1.18.62-1.12.74-1.81c.04-.23.07-.48.07-.75Z"/>
    <path class="cls-2" d="M221.72,236.35c.51-.71,1.12-1.25,1.86-1.64.73-.39,1.51-.58,2.33-.58s1.45.17,1.98.52c.53.35.89.78,1.08,1.29l.3-1.67h1.53l-2.38,13.47h-1.52l1.05-6.02c-.37.51-.88.94-1.55,1.3-.67.36-1.4.53-2.2.53-.7,0-1.32-.15-1.87-.46s-.97-.74-1.27-1.31c-.3-.57-.45-1.22-.45-1.97,0-.33.03-.67.1-1.02.17-.93.5-1.75,1.01-2.46ZM228.53,238.08c0-.81-.24-1.45-.72-1.93-.48-.47-1.1-.71-1.84-.71-.57,0-1.11.13-1.62.4s-.96.66-1.33,1.17c-.37.51-.61,1.11-.73,1.8-.04.23-.07.49-.07.77,0,.82.24,1.47.72,1.94.48.47,1.09.71,1.83.71.57,0,1.11-.14,1.62-.41s.96-.67,1.33-1.18.62-1.12.74-1.81c.04-.23.07-.48.07-.75Z"/>
    <path class="cls-2" d="M241.46,234.28l-1.62,9.13h-1.52l.23-1.33c-.37.47-.83.83-1.4,1.08-.57.26-1.16.38-1.77.38-.96,0-1.72-.26-2.29-.78s-.86-1.26-.86-2.22c0-.25.03-.55.08-.92l.95-5.35h1.5l-.9,5.15c-.04.23-.07.48-.07.73,0,.68.19,1.19.56,1.54.37.35.89.52,1.56.52.8,0,1.48-.25,2.04-.75s.92-1.23,1.08-2.18v.05l.9-5.07h1.52Z"/>
    <path class="cls-2" d="M245.54,234.28l-1.62,9.13h-1.52l1.62-9.13h1.52ZM244.45,232.55c-.16-.16-.24-.36-.24-.61,0-.33.12-.62.37-.86.25-.24.53-.36.85-.36.25,0,.46.08.62.23.16.16.23.36.23.62,0,.33-.12.62-.37.86-.25.24-.53.36-.85.36-.24,0-.45-.08-.61-.24Z"/>
    <path class="cls-2" d="M247.88,242.16h4.48l-.23,1.25h-6.22l.22-1.25,5.62-6.65h-4.4l.22-1.23h6.13l-.22,1.23-5.6,6.65Z"/>
    <path class="cls-2" d="M255.46,242.16h4.48l-.23,1.25h-6.22l.22-1.25,5.62-6.65h-4.4l.22-1.23h6.13l-.22,1.23-5.6,6.65Z"/>
    <path class="cls-2" d="M269.25,234.57c.56.29.99.71,1.28,1.23.29.53.44,1.13.44,1.81,0,.23-.03.52-.08.85-.04.29-.12.59-.22.9h-7.3c-.02.22-.03.38-.03.48,0,.77.23,1.36.69,1.79.46.43,1.06.64,1.81.64.66,0,1.23-.15,1.73-.46.49-.31.87-.71,1.12-1.22h1.63c-.4.88-1.01,1.59-1.84,2.14-.83.55-1.79.83-2.88.83-1.14,0-2.06-.33-2.76-.99s-1.04-1.56-1.04-2.71c0-.32.03-.67.1-1.03.17-.94.5-1.77,1.02-2.48.51-.71,1.14-1.26,1.89-1.64.75-.38,1.56-.58,2.44-.58.77,0,1.43.15,1.99.44ZM269.41,237.64c0-.71-.23-1.26-.68-1.65-.45-.39-1.04-.58-1.76-.58-.78,0-1.48.25-2.12.76-.63.5-1.06,1.2-1.28,2.09h5.78c.03-.22.05-.43.05-.62Z"/>
    <path class="cls-2" d="M272.88,242.88c-.61-.46-.92-1.07-.92-1.83,0-.14,0-.25.02-.32h1.48c-.04.48.1.87.42,1.17.33.3.8.45,1.42.45s1.12-.12,1.51-.36c.38-.24.58-.58.58-1.01,0-.37-.16-.66-.47-.87-.31-.21-.79-.44-1.43-.68-.57-.21-1.03-.41-1.4-.6-.37-.19-.68-.45-.93-.79s-.38-.77-.38-1.29.15-.97.44-1.37c.29-.4.71-.71,1.23-.92.53-.22,1.13-.33,1.81-.33.93,0,1.7.23,2.3.7s.9,1.08.9,1.83c0,.14,0,.26-.02.33h-1.45l.02-.2c0-.44-.17-.8-.51-1.06s-.79-.39-1.34-.39-.99.12-1.34.37c-.35.25-.52.57-.52.98,0,.39.16.69.48.92s.82.47,1.5.73c.57.22,1.02.42,1.37.61.34.18.64.44.88.76.24.32.37.73.37,1.22,0,.53-.16,1-.47,1.4-.32.4-.75.71-1.31.92s-1.18.32-1.88.32c-.96,0-1.74-.23-2.35-.68Z"/>
  </g>
</svg>