<?xml version="1.0" encoding="UTF-8"?>
<svg id="Layer_1" data-name="Layer 1" xmlns="http://www.w3.org/2000/svg" viewBox="0 0 322.62 440.76">
  <defs>
    <style>
      .cls-1, .cls-2 {
        fill: #fff;
      }

      .cls-2 {
        opacity: .7;
      }
    </style>
  </defs>
  <path class="cls-1" d="M309.27,3.65c8.62,14.47,16.6,34.03,12.02,54.4-2.31,10.28-7.02,17.21-8.55,19.51-11.87,17.88-32.96,59.81-71.55,151.31l-26.85-10.11L309.27,3.65Z"/>
  <path class="cls-1" d="M101.15,268.26c-4.96-.69-13.98-5.84-28.4-18.39-2.45-2.13-19.16-16.53-14.29-33.99,1.2-4.32,3.24-7.55,4.76-9.6-.42.8-.89,1.88-1.19,3.21-.19.85-.28,1.63-.31,2.3.06.76.24,1.85.74,3.07.52,1.28,1.2,2.21,1.71,2.81.78.72,1.92,1.73,3.38,2.81,2.07,1.54,3.8,2.5,7.08,4.23,2.39,1.26,5.21,2.71,8.41,4.3,1.58.74,3.81,1.79,6.47,3.08,4.78,2.32,5.98,3,6.52,3.31,1.72.99,4.1,2.47,6.79,4.58.5.45,4.08,3.77,5.12,7.53.46,1.66.46,3.21.46,3.21,0,1.23-.2,2.24-.39,2.95-.4,1.96-.83,3.22-1.13,3.96-.07.17-.2.48-.32.78-.03.06-.57,1.34-1.11,2.47-.71,1.47-1.42,2.69-2.09,3.84-.56.95-1.3,2.17-2.21,3.55Z"/>
  <path class="cls-1" d="M4.73,440.72c-23.58-6.46,46.39-102.1,90.66-164.22,4.63-6.46,10.65-14.93,12.14-21.73,3.16-10.72-8.11-17.49-16.77-21.46-9.72-4.93-24.47-11.12-27.77-16.41-3.45-5.36-.7-9.81,3.36-15.77C127.84,128.77,201.53,65.18,288.53,7.17c5.49-3.66,15.85-9.48,19.7-6.2,2.1,1.79,1.51,5.68,1.29,7.14-3.27,21.66-61.31,126.89-72.9,166.38-2.07,7.07-5.82,18.32.78,24.78,5.26,5.14,14.97,8.98,21.89,13.66,10.41,6.82,19.21,16.92,23.19,27.81,16.88,40.37-220.54,199.07-277.56,200.02l-.19-.04Z"/>
  <path class="cls-2" d="M204.21,280.28c1.73,2.99,23.99-15,32.88-24.43,13.18-13,22.46-25.93,17.58-25.21-11.15,2.67-50.73,40.08-50.58,49.52l.13.13Z"/>
  <path class="cls-2" d="M270.14,42.7c1.89,1.07,14.65-9.54,12.82-11.33-2.78-.18-13.2,8.73-12.88,11.26l.07.08Z"/>
  <path class="cls-2" d="M83.95,213.67c10.5,1.43,71.67-51.55,84.89-62.88,12.49-10.89,27.69-24.83,40.66-37.48,9.83-9.66,17.03-16.84,24.39-25.7,2.18-3.07,4.89-5.41,5.01-8.68-3.39-2.38-17.13,8.04-36.09,22.24-16.24,12.53-34.53,27.73-48.9,40.37-13.39,12.04-69.86,61.73-69.98,72.1l.03.04Z"/>
</svg>