<?xml version="1.0" encoding="UTF-8"?>
<svg id="Layer_1" data-name="Layer 1" xmlns="http://www.w3.org/2000/svg" viewBox="0 0 355.48 505.81">
  <path d="M5.43,505.77c-27.06-7.41,53.24-117.17,104.04-188.46,5.32-7.41,12.22-17.13,13.93-24.93,3.62-12.31-9.31-20.07-19.24-24.63-11.15-5.66-28.09-12.76-31.87-18.83-3.96-6.15-.8-11.26,3.86-18.1C146.71,147.78,231.27,74.8,331.11,8.22c6.3-4.2,18.19-10.88,22.61-7.11,2.41,2.06,1.74,6.52,1.48,8.2-3.75,24.86-70.36,145.61-83.66,190.93-2.38,8.11-6.68,21.03.89,28.43,6.03,5.9,17.18,10.31,25.13,15.68,11.94,7.82,22.05,19.42,26.61,31.92,19.37,46.33-253.09,228.45-318.53,229.54l-.21-.04Z"/>
</svg>