<?xml version="1.0" encoding="UTF-8"?>
<svg id="Layer_1" data-name="Layer 1" xmlns="http://www.w3.org/2000/svg" viewBox="0 0 358.44 340.91">
  <path d="M354.53,137.97c-3.14-12.84-7.43-13.05-19.42-16.65-9.02-2.93-19.45-9.36-25.88-17.1-7.63-9.04-11-19.81-11.08-31.42-.27-14.03,8.44-27.96-2.19-40.12-9.9-12.77-28.64-25.44-45.43-29.91-8.41-2.18-17.65-4.96-24.76-.01l-.12.08c-4.04,2.75-7.74,7.28-11.52,10.93-3.53,3.5-7.59,6.54-12.01,8.84-14.51,7.72-33.02,7.33-47.19-1.03-6.72-3.67-12.03-9.88-17.41-14.97-8.15-7.95-16.27-6.34-27.37-2.79-5.79,1.83-12.17,4.47-18.36,7.82-8.59,4.59-16.81,10.61-23.57,17.1-6.23,5.7-11.55,12.58-9.95,21.35,1.02,7.35,4.52,16.9,4.1,25.36-.42,28.41-21.99,44.18-47.5,48.88-8.37,1.86-9.81,10.14-11.68,17.51-3.47,14.67-4.08,31.33-1.97,46.12,3.12,19.88,4.8,25.62,24.9,32.05,14.94,5.28,27.38,16.08,32.15,31.69,2.97,9.12,3.05,21.14.98,29.81-1.18,5.74-3.1,9.61-2.59,14.76.37,2.77,1.75,5.42,3.36,7.79,10.43,15.79,33.73,31.45,54.37,35.26,8.1,1.49,16.26,3.45,22.37-2.14,9.33-8.93,21.54-16.85,35.26-19.27,13.31-2.58,26.97,2.21,38.06,9.4,8.86,5.24,12.76,14.04,23.2,13.39,24.25-.88,55.52-19.15,67.5-39.85,3.37-5.76,1.3-11.38.11-17.83-2.44-12.55-.84-28.19,5.68-39.64,5.92-10.42,15.19-17.97,26.09-22.49,11.23-4.46,19.61-7.92,22.41-20.74,4.71-17.48,4.43-44.9-.54-62.18ZM244.74,170.33c-.11,55.34-64.52,85.35-107.16,50.55-17.98-14.49-26.94-38.9-22.93-61.66,6.51-42.11,53.72-66.57,91.9-48.59,23.02,10.37,38.32,34.05,38.19,59.5v.2Z"/>
</svg>