<?xml version="1.0" encoding="UTF-8"?>
<svg id="Layer_2" data-name="Layer 2" xmlns="http://www.w3.org/2000/svg" viewBox="0 0 84.9 90.81">
  <defs>
    <style>
      .cls-1 {
        fill: none;
        stroke: #000;
        stroke-miterlimit: 10;
      }
    </style>
  </defs>
  <path class="cls-1" d="M8.87,77.24v-30.89c0-1.21-.98-2.2-2.2-2.2h-3.97c-1.96,0-2.94-2.37-1.55-3.75L40.41,1.14c.86-.86,2.25-.86,3.11,0l40.24,40.24c1.38,1.38.4,3.75-1.55,3.75h-4.71c-1.21,0-2.2.98-2.2,2.2v40.78c0,1.21-.98,2.2-2.2,2.2h-19.54c-1.21,0-2.2-.98-2.2-2.2v-21c0-1.21-.98-2.2-2.2-2.2h-14.65c-1.21,0-2.2.98-2.2,2.2v21c0,1.21-.98,2.2-2.2,2.2H10.87c-1.23,0-2.22-1.01-2.2-2.24l.2-10.83Z"/>
</svg>