<?xml version="1.0" encoding="UTF-8"?>
<svg id="Layer_1" data-name="Layer 1" xmlns="http://www.w3.org/2000/svg" xmlns:xlink="http://www.w3.org/1999/xlink" viewBox="0 0 450.53 301.19">
  <defs>
    <style>
      .cls-1 {
        fill: url(#linear-gradient-2);
      }

      .cls-2 {
        fill: url(#linear-gradient-10);
      }

      .cls-3 {
        fill: url(#linear-gradient-12);
      }

      .cls-4, .cls-5, .cls-6 {
        font-family: Rubik-Regular, Rubik;
      }

      .cls-4, .cls-6 {
        font-size: 13.49px;
      }

      .cls-7 {
        fill: url(#linear-gradient-4);
      }

      .cls-5 {
        fill: #0d0c22;
        font-size: 60.08px;
      }

      .cls-8 {
        fill: url(#linear-gradient-3);
      }

      .cls-9 {
        fill: url(#linear-gradient-5);
      }

      .cls-10 {
        fill: url(#linear-gradient-8);
      }

      .cls-11 {
        fill: url(#linear-gradient-7);
      }

      .cls-12 {
        fill: url(#linear-gradient-9);
      }

      .cls-13 {
        fill: url(#linear-gradient-11);
      }

      .cls-14 {
        fill: url(#linear-gradient-6);
      }

      .cls-15 {
        fill: url(#linear-gradient);
      }

      .cls-6 {
        fill: #7b7194;
      }
    </style>
    <linearGradient id="linear-gradient" x1="106.17" y1="16.79" x2="150.04" y2="16.79" gradientUnits="userSpaceOnUse">
      <stop offset="0" stop-color="#7b7194"/>
      <stop offset="1" stop-color="#4e4a5a"/>
    </linearGradient>
    <linearGradient id="linear-gradient-2" x1="152.41" y1="74.34" x2="300.84" y2="74.34" gradientUnits="userSpaceOnUse">
      <stop offset="0" stop-color="#ff6ec4"/>
      <stop offset="1" stop-color="#6a00f4"/>
    </linearGradient>
    <linearGradient id="linear-gradient-3" x1="250.87" y1="193.13" x2="300.99" y2="193.13" gradientUnits="userSpaceOnUse">
      <stop offset="0" stop-color="#f1ff1f"/>
      <stop offset="1" stop-color="#b8ff3f"/>
    </linearGradient>
    <linearGradient id="linear-gradient-4" x1="66.02" y1="263.2" x2="269.06" y2="263.2" gradientUnits="userSpaceOnUse">
      <stop offset="0" stop-color="#dc2f02"/>
      <stop offset="1" stop-color="#fb5607"/>
    </linearGradient>
    <linearGradient id="linear-gradient-5" x1=".06" y1="210.13" x2="75.76" y2="210.13" gradientUnits="userSpaceOnUse">
      <stop offset="0" stop-color="#4895ef"/>
      <stop offset="1" stop-color="#4cc9f0"/>
    </linearGradient>
    <linearGradient id="linear-gradient-6" x1="0" y1="79.22" x2="110.26" y2="79.22" gradientUnits="userSpaceOnUse">
      <stop offset="0" stop-color="#63c132"/>
      <stop offset="1" stop-color="#17c3b2"/>
    </linearGradient>
    <linearGradient id="linear-gradient-7" x1="339.63" y1="77.24" x2="349.6" y2="77.24" xlink:href="#linear-gradient-2"/>
    <linearGradient id="linear-gradient-8" x1="339.71" y1="101.21" x2="349.68" y2="101.21" xlink:href="#linear-gradient-3"/>
    <linearGradient id="linear-gradient-9" x1="339.75" y1="123.28" x2="349.72" y2="123.28" xlink:href="#linear-gradient-4"/>
    <linearGradient id="linear-gradient-10" x1="339.99" y1="146.93" x2="349.95" y2="146.93" xlink:href="#linear-gradient-5"/>
    <linearGradient id="linear-gradient-11" x1="339.99" y1="169.16" x2="349.95" y2="169.16" xlink:href="#linear-gradient-6"/>
    <linearGradient id="linear-gradient-12" x1="340.22" y1="192.42" x2="350.19" y2="192.42" xlink:href="#linear-gradient"/>
  </defs>
  <path class="cls-15" d="M116.96,33.57c-2.56.23-5.02-1.96-5.48-4.49-1.63-5.6-3.28-11.28-4.92-16.9-1.44-3.46,1.39-7.01,4.86-7.54,9.59-2.21,21.79-3.96,31.88-4.55,3.79-.65,7.01,2.31,6.71,6.14,0,5.65,0,11.34,0,16.99.32,3.25-1.91,6.74-5.43,6.66-3.16.18-6.55.44-10.08.84-6.08.62-11.99,1.84-17.45,2.85h-.1Z"/>
  <path class="cls-1" d="M152.56,25.75c.52,1.93,2.69,3.46,4.46,3.63,22.97.75,60.09,13.43,82.34,38.74,24.54,25.28,31.81,62.02,32.19,76.08.59,2.62,2.96,4.66,5.77,4.35,5.66-.03,11.42-.06,17.08-.1,1.01-.02,1.94-.08,2.89-.5,1.8-.83,3.76-2.93,3.54-4.86.58-12.71-8.55-63.92-40.38-95.61C225.37,7.98,167.5-.51,156.7.13c-2.5.26-4.24,3.15-4.02,5.73.02,6.56-.5,13.24-.15,19.79l.03.1Z"/>
  <path class="cls-8" d="M275.93,150.92c-3.15.49-4.71,4.02-4.56,6.95-.43,8.22-2.5,20.15-5.46,29.17-3.57,11.57-9.39,22.71-13.92,29.63-.57.91-1.07,1.68-1.1,2.88-.11,2.04,1.27,3.73,2.95,4.73,4.73,3.27,9.52,6.57,14.25,9.83,2.2,1.87,5.64,1.85,7.54-.42,5.21-7.44,10.27-16.44,15.12-28.46,6.33-15.15,9.99-35.98,10.22-47.61.05-1.37.05-2.4-.77-3.76-1.41-2.43-3.98-3.15-6.58-2.96-5.84.04-11.75-.23-17.58,0l-.1.02Z"/>
  <path class="cls-7" d="M84.78,252.45c-.52-.25-1.48-.57-2.69-.48-.75.06-1.54.29-2.19.64-1.45.76-2.11,1.96-3.07,3.21-3.17,4.32-6.4,8.69-9.55,12.99-2.24,2.45-1.26,6.38,1.25,8.02,9.59,6.92,53.09,30.55,103.06,22.81,49.44-5.38,89.24-43.94,96.71-55.17,1.07-1.13.91-3.5.1-4.97-.55-1-1.4-1.65-2.3-2.33-4.19-3.15-8.43-6.33-12.63-9.5-1.33-.95-2.42-2.11-4.12-2.39-1.45-.21-2.62.03-3.57.7-6.19,7.18-22.96,27.47-54.35,38.87-5.53,2.01-11.88,3.76-18.01,4.94-33.56,7.21-69.97-4.7-88.58-17.32l-.06-.03Z"/>
  <path class="cls-9" d="M3.13,151.98c.44-.21.77-.24,1.24-.24,3.28.02,17.3.12,20.73.14,2.59-.07,4.49,3.15,4.54,5.62,1.22,26.26,13.41,55.58,31.9,74.97,3.43,3.72,7.12,7.24,10.71,10.29,2.29,1.56,4.19,4.56,3.3,7.57-.38,1.35-1.2,2.36-1.98,3.49-2.94,4.12-5.89,8.26-8.84,12.37-.64.87-1.37,1.71-2.39,2.07-2.6.79-6.41-.19-8.52-2.08-4.6-3.97-9.68-8.95-14.13-13.95C21.15,231.75,7.55,204.12,2.58,177.22c-1.29-6.63-2.12-13.4-2.5-19.54-.22-2.19,1.18-4.59,2.99-5.67l.07-.03Z"/>
  <path class="cls-14" d="M29.6,145.03c-.42,1.41-1.58,2.67-3.04,3.47-1.21.63-2.44.58-3.75.59-5.67-.05-11.39-.09-17.04-.15-2.52.24-5.27-1.91-5.77-4.26.36-13.51,3.41-38.81,19.28-67.56C38.26,42.68,70.62,19.6,97.16,9.67c1.28-.51,2.58-.42,4,.32,1.57.79,2.29,2.35,2.83,3.93,1.71,4.6,3.44,9.25,5.16,13.87.5,1.44,1.16,2.69,1.1,4.26-.13,1.92-.86,3.7-2.48,4.39-7.37,2.91-22.76,9.75-38.08,23.51-5.59,5.02-11.17,10.95-16.34,17.95-15.85,20.56-22.97,48.14-23.73,67.06l-.02.08Z"/>
  <text class="cls-5" transform="translate(115.85 161.96)"><tspan x="0" y="0">95</tspan></text>
  <text class="cls-6" transform="translate(92.59 191.86)"><tspan x="0" y="0">Completed Quizzes</tspan></text>
  <circle class="cls-11" cx="344.62" cy="77.24" r="4.98"/>
  <text class="cls-4" transform="translate(357.03 81.95)"><tspan x="0" y="0">Programming</tspan></text>
  <circle class="cls-10" cx="344.69" cy="101.21" r="4.98"/>
  <text class="cls-4" transform="translate(357.11 105.92)"><tspan x="0" y="0">History</tspan></text>
  <circle class="cls-12" cx="344.73" cy="123.28" r="4.98"/>
  <text class="cls-4" transform="translate(357.15 127.99)"><tspan x="0" y="0">Math</tspan></text>
  <circle class="cls-2" cx="344.97" cy="146.93" r="4.98"/>
  <text class="cls-4" transform="translate(357.39 151.64)"><tspan x="0" y="0">Literature</tspan></text>
  <circle class="cls-13" cx="344.97" cy="169.16" r="4.98"/>
  <text class="cls-4" transform="translate(357.39 173.87)"><tspan x="0" y="0">Science</tspan></text>
  <circle class="cls-3" cx="345.21" cy="192.42" r="4.98"/>
  <text class="cls-4" transform="translate(357.63 197.12)"><tspan x="0" y="0">Not completed</tspan></text>
</svg>