<?xml version="1.0" encoding="UTF-8"?>
<svg id="Layer_1" data-name="Layer 1" xmlns="http://www.w3.org/2000/svg" viewBox="0 0 106.23 146.81">
  <defs>
    <style>
      .cls-1 {
        fill: none;
        stroke: #000;
        stroke-miterlimit: 10;
        stroke-width: 3px;
      }
    </style>
  </defs>
  <path class="cls-1" d="M34.4,89.15c-1.62-.23-4.56-1.91-9.27-6-.8-.69-6.25-5.39-4.66-11.09.39-1.41,1.06-2.46,1.55-3.14-.14.26-.29.61-.39,1.05-.07.28-.09.54-.1.75.02.24.08.6.24,1,.17.41.39.72.55.92.25.23.63.56,1.1.92.68.51,1.24.82,2.31,1.38.78.41,1.7.88,2.74,1.4.52.24,1.24.58,2.11,1,1.56.76,1.95.98,2.13,1.08.56.32,1.33.81,2.22,1.49.16.15,1.33,1.23,1.67,2.46.15.54.15,1.05.15,1.05,0,.4-.4,2.01-.5,2.25-.02.06-.07.16-.1.25,0,.02-.19.44-.37.81l-1.4,2.39Z"/>
  <path class="cls-1" d="M3.04,145.28c-7.69-2.1,15.14-33.31,29.58-53.58,1.51-2.1,3.47-4.87,3.96-7.09,1.03-3.49-2.65-5.71-5.47-7.01-3.17-1.61-7.98-3.62-9.06-5.35-1.13-1.75-.23-3.2,1.1-5.15C43.21,43.51,67.25,22.77,95.64,3.83c1.79-1.19,5.17-3.09,6.42-2.02.69.58.49,1.85.42,2.33-1.07,7.07-20,41.4-23.79,54.29-.68,2.31-1.9,5.98.25,8.09,1.72,1.68,4.88,2.93,7.15,4.46,3.4,2.23,6.26,5.52,7.57,9.07,5.5,13.17-71.96,64.95-90.56,65.26h-.07s0-.03,0-.03Z"/>
  <path class="cls-1" d="M101.89,4.24c1.74,1.07,2.65,3.15,2.81,5.17.16,2.03-.32,4.06-.83,6.03-4.76,18.64-11.96,36.66-21.35,53.45"/>
</svg>