<?xml version="1.0" encoding="UTF-8"?>
<svg id="Layer_1" data-name="Layer 1" xmlns="http://www.w3.org/2000/svg" viewBox="0 0 110.94 154.14">
  <defs>
    <style>
      .cls-1 {
        fill: none;
        stroke: #000;
        stroke-miterlimit: 10;
      }
    </style>
  </defs>
  <path class="cls-1" d="M35.64,93.7c-1.72-.24-4.86-2.03-9.87-6.39-.85-.74-6.66-5.74-4.96-11.81.42-1.5,1.13-2.62,1.65-3.34-.15.28-.31.65-.41,1.12-.07.3-.1.57-.11.8.02.26.08.64.26,1.07.18.44.42.77.59.98.27.25.67.6,1.17.98.72.54,1.32.87,2.46,1.47.83.44,1.81.94,2.92,1.49.55.26,1.32.62,2.25,1.07,1.66.81,2.08,1.04,2.27,1.15.6.34,1.42.86,2.36,1.59.17.16,1.42,1.31,1.78,2.62.16.58.16,1.12.16,1.12,0,.43-.07.78-.14,1.02-.14.68-.29,1.12-.39,1.38-.02.06-.07.17-.11.27-.01.02-.2.47-.39.86-.25.51-.49.93-.73,1.33-.19.33-.45.75-.77,1.23h0Z"/>
  <path class="cls-1" d="M2.14,153.62c-8.19-2.24,16.12-35.47,31.5-57.06,1.61-2.24,3.7-5.19,4.22-7.55,1.1-3.72-2.82-6.08-5.83-7.46-3.38-1.71-8.5-3.86-9.65-5.7-1.2-1.86-.24-3.41,1.17-5.48C44.92,45.24,70.52,23.15,100.75,2.99c1.91-1.27,5.51-3.29,6.84-2.15.73.62.52,1.97.45,2.48-1.14,7.53-21.3,44.09-25.33,57.81-.72,2.46-2.02,6.37.27,8.61,1.83,1.79,5.2,3.12,7.61,4.75,3.62,2.37,6.67,5.88,8.06,9.66,5.86,14.03-76.63,69.17-96.44,69.5h-.07s0-.01,0-.01Z"/>
  <path class="cls-1" d="M107.41,3.42c1.85,1.14,2.82,3.35,2.99,5.51s-.34,4.32-.88,6.42c-5.07,19.85-12.74,39.04-22.74,56.92"/>
</svg>