<?xml version="1.0" encoding="UTF-8"?>
<svg id="Layer_1" data-name="Layer 1" xmlns="http://www.w3.org/2000/svg" viewBox="0 0 321.32 456.78">
  <defs>
    <style>
      .cls-1 {
        fill: #fff;
        stroke: #fff;
        stroke-miterlimit: 10;
      }

      .cls-2 {
        opacity: .7;
      }
    </style>
  </defs>
  <g class="cls-2">
    <path class="cls-1" d="M5.39,456.24c-24.38-6.68,47.97-105.58,93.75-169.82,4.79-6.68,11.01-15.44,12.55-22.47,3.26-11.09-8.39-18.08-17.34-22.2-10.05-5.1-25.31-11.5-28.72-16.97-3.57-5.54-.72-10.15,3.48-16.31C132.69,133.66,208.9,67.9,298.86,7.91c5.68-3.78,16.39-9.8,20.37-6.41,2.17,1.85,1.56,5.87,1.34,7.39-3.38,22.4-63.4,131.21-75.38,172.05-2.14,7.31-6.02,18.95.8,25.62,5.44,5.32,15.48,9.29,22.64,14.13,10.76,7.05,19.86,17.5,23.98,28.76,17.46,41.75-228.05,205.85-287.02,206.84l-.19-.04Z"/>
  </g>
</svg>