<?xml version="1.0" encoding="UTF-8"?>
<svg id="Layer_1" data-name="Layer 1" xmlns="http://www.w3.org/2000/svg" xmlns:xlink="http://www.w3.org/1999/xlink" viewBox="0 0 391.23 528.6">
  <defs>
    <style>
      .cls-1 {
        opacity: .9;
      }

      .cls-2 {
        fill: url(#linear-gradient-2);
      }

      .cls-3 {
        fill: url(#linear-gradient-4);
      }

      .cls-4 {
        fill: url(#linear-gradient-3);
      }

      .cls-5 {
        fill: #fb17f8;
        opacity: .36;
      }

      .cls-6 {
        fill: #fff;
        opacity: .7;
      }

      .cls-7 {
        fill: url(#linear-gradient);
      }
    </style>
    <linearGradient id="linear-gradient" x1="282.5" y1="-57.44" x2="334.4" y2="186.66" gradientTransform="translate(42.97 1.48) rotate(12)" gradientUnits="userSpaceOnUse">
      <stop offset="0" stop-color="#36ffff"/>
      <stop offset="1" stop-color="#007bff"/>
    </linearGradient>
    <linearGradient id="linear-gradient-2" x1="128.15" y1="204.92" x2="142.43" y2="272.1" gradientTransform="translate(42.97 1.48) rotate(12)" gradientUnits="userSpaceOnUse">
      <stop offset="0" stop-color="#36ffff"/>
      <stop offset="1" stop-color="#007bff"/>
    </linearGradient>
    <linearGradient id="linear-gradient-3" x1="260.11" y1="442.5" x2="158.53" y2="-35.22" xlink:href="#linear-gradient-2"/>
    <linearGradient id="linear-gradient-4" x1="0" y1="418.63" x2="280.61" y2="418.63" gradientUnits="userSpaceOnUse">
      <stop offset="0" stop-color="#fb17f8"/>
      <stop offset="1" stop-color="#fdc70c"/>
    </linearGradient>
  </defs>
  <g>
    <path class="cls-7" d="M376.43,4.05c9.55,16.04,18.39,37.7,13.31,60.28-2.56,11.39-7.78,19.07-9.47,21.62-13.15,19.81-36.52,66.28-79.28,167.66l-29.75-11.21L376.43,4.05Z"/>
    <path class="cls-2" d="M145.82,297.26c-5.49-.77-15.49-6.48-31.47-20.37-2.71-2.36-21.23-18.32-15.84-37.67,1.33-4.78,3.59-8.37,5.28-10.64-.47.89-.99,2.09-1.32,3.56-.21.95-.31,1.81-.34,2.54.07.85.27,2.05.82,3.4.58,1.41,1.33,2.45,1.89,3.11.86.8,2.13,1.91,3.75,3.11,2.3,1.7,4.21,2.77,7.85,4.68,2.65,1.39,5.78,3,9.32,4.76,1.75.82,4.22,1.98,7.17,3.42,5.29,2.57,6.63,3.32,7.23,3.66,1.91,1.09,4.54,2.74,7.52,5.07.55.5,4.52,4.18,5.67,8.34.51,1.84.51,3.56.51,3.56,0,1.36-.23,2.49-.44,3.27-.44,2.17-.92,3.57-1.25,4.39-.08.19-.22.53-.36.87-.03.07-.63,1.48-1.23,2.74-.78,1.63-1.57,2.98-2.32,4.26-.62,1.06-1.44,2.4-2.44,3.94Z"/>
    <path class="cls-4" d="M38.97,488.36c-26.12-7.16,51.4-113.14,100.46-181.98,5.14-7.15,11.8-16.54,13.45-24.07,3.5-11.88-8.99-19.38-18.58-23.78-10.77-5.46-27.12-12.32-30.77-18.18-3.83-5.94-.78-10.87,3.72-17.48C175.39,142.69,257.05,72.23,353.45,7.94c6.08-4.06,17.57-10.5,21.83-6.87,2.33,1.99,1.68,6.29,1.43,7.91-3.62,24-67.94,140.6-80.78,184.36-2.3,7.83-6.45,20.3.86,27.45,5.83,5.7,16.59,9.95,24.26,15.14,11.53,7.55,21.29,18.75,25.69,30.82,18.71,44.74-244.38,220.58-307.56,221.64l-.21-.04Z"/>
    <path class="cls-6" d="M260.02,310.58c1.92,3.31,26.58-16.62,36.43-27.07,14.6-14.41,24.89-28.74,19.48-27.94-12.35,2.96-56.21,44.41-56.05,54.87l.14.15Z"/>
    <path class="cls-6" d="M333.07,47.31c2.1,1.19,16.23-10.57,14.2-12.56-3.08-.2-14.62,9.68-14.28,12.47l.07.09Z"/>
    <path class="cls-6" d="M126.76,236.76c11.64,1.58,79.42-57.12,94.06-69.68,13.84-12.06,30.68-27.51,45.06-41.53,10.89-10.7,18.87-18.66,27.02-28.48,2.42-3.41,5.42-6,5.55-9.62-3.75-2.64-18.98,8.91-39.99,24.65-18,13.88-38.27,30.73-54.19,44.73-14.83,13.34-77.41,68.4-77.54,79.9l.04.04Z"/>
  </g>
  <g class="cls-1">
    <path class="cls-3" d="M142.8,328.49c-5.17,1.15-10.28,2.15-15.41,2.07-21.78.79-27.96-29.91-45.88-19.9-12.27,6.68-22.29,19.27-28.64,31.79-13.45,25.57.52,53.48-8.78,77.32-11.86,28.81-36.44,57.44-43.5,87.83-10.5,55.55,120.51-16.3,145.28-19.74,17.1-4.03,33.99.47,51.18.14,26.54-.39,57.17-21.47,75.31-42.42,7.23-8.33,14.78-22.49-1.33-23.11-131.27,3.18,115.76-152.1-125.92-94.54l-2.32.54Z"/>
    <path class="cls-5" d="M250.44,322.05c-5.31-4.44-15.74-4-26.76-2.92-17.96,2.06-36.65,3.36-54.54,6.21-34.09,4.42-59.43,24.18-74.69,52.93-17.36,29.21-37.4,62.28-54.14,92.72-2.94,5.76-3.11,9.03-1.74,10.72,2.87,3.52,12.58.03,16.82-1.55,24.53-9.08,102.74-51.13,128.9-65.27,7-3.93,16.42-9.78,26.72-17.97,8.76-6.97,17.63-14.02,24.58-23.52,4.91-6.71,15.16-23.26,14.85-51.35Z"/>
  </g>
</svg>